<svg width="232" height="206" fill="none" xmlns="http://www.w3.org/2000/svg"><path d="M59.992 37.16c99.609 25.128 87.349 99.752 58.816 73.073-28.533-26.68 92.114-33.135 40.909 89.257" stroke="#8DED60" stroke-width="10" stroke-linecap="round"/><g clip-path="url(#clip0_67_541)"><path d="M75.067 28.76c-4.974 1.841-10.316 3.655-14.823 5.333 1.47.567 4.285 1.432 5.754 1.91-1.937-.314-4.725 4.351-6.9 3.905.387 1.47 2.268 3.814 3.203 4.79 1.736 1.753 3.05 3.11 4.752 5.03.5.538.267 1.708.434 2.613-1.068.127-2.07.355-3.105.315-.267.031-.634-.306-.934-.542-5.274-4.051-10.582-7.935-15.655-12.118-3.071-2.464-2.904-5.91.768-7.326 6.41-2.502 13.053-4.434 19.663-6.198 2.203-.588 4.807-.136 6.843 2.287z" fill="#8DED60"/></g><defs><clipPath id="clip0_67_541"><path fill="#fff" transform="scale(1 -1) rotate(-56.498 -12.458 -56.903)" d="M0 0h143.469v46.299H0z"/></clipPath></defs></svg>