<svg width="326" height="324" fill="none" xmlns="http://www.w3.org/2000/svg"><g clip-path="url(#clip0_6_124)"><path fill="#8DED60" d="M0 0h325.33v324H0z"/><g clip-path="url(#clip1_6_124)"><path d="M195.625 171.514c-1.499-7.3-6.192-12.409-13.467-14.576-13.417-3.993-37.833-3.042-43.603 12.56-3.388 9.171-1.587 20.73.536 29.939.151.661.674.881 1.197.793 3.074 2.835 6.872 4.466 10.922 5.606 5.518 1.556 11.364 2.734 17.102 3.061 8.687.498 17.657-1.82 22.967-8.85.517-.031 1.014-.333 1.153-.976 1.845-8.824 5.045-18.531 3.193-27.557z" fill="#66362D"/><path d="M188.192 270.966c2.148-4.75 3.106-9.971 3.742-15.136-1.808-.712-4.088-.907-5.606-1.348-4.535-1.311-6.879-3.219-7.049-8.416-.239-7.155-.378-14.298.044-21.472.063-1.071-2.721-1.55-3.508-1.247a321.429 321.429 0 01-22.627-4.536c-1.19-.283-1.877.977-1.524 1.833-.158.202-1.877.397-1.871.725.176 8.138 1.31 18.159-1.102 26.064-.158.517-.353 1.027-.63 1.493-1.934 3.282-5.115 4.233-8.435 5.386-3.867 1.341-4.693 4.654-5.808 8.308-.976 3.193-2.614 7.294.29 9.927 3.131 2.834 8.164 4.73 12.025 6.336 8.926 3.716 18.381 3.666 27.716 1.512 4.542-1.046 8.882-2.923 12.372-5.782a30.585 30.585 0 001.959-3.641l.012-.006z" fill="#AD6553"/><path d="M150.165 236.379c2.538 6.966 23.294 2.57 28.894-3.861.037-2.073.378-6.4.504-8.472.063-1.071-2.961-.995-3.742-.699a321.287 321.287 0 01-22.626-4.536c-1.191-.283-1.878.977-1.525 1.833-.157.202-1.877.133-1.871.467.101 4.736.303 10.04.366 15.274v-.006z" fill="#8A4230"/><path d="M183.978 165.354c-9.902-8.75-28.648-7.987-37.29 2.645-6.016 7.407-7.219 17.397-6.847 26.518.214 5.36.982 10.677 2.229 15.892 1.115 4.674 2.426 9.75 5.336 13.687 4.718 6.387 14.103 8.1 21.675 7.294 10.11-1.077 16.598-8.144 18.822-17.555 2.003-8.471 2.916-17.17 2.916-25.844 0-4.333.025-8.793-1.014-13.025-.964-3.944-3.049-7.15-5.827-9.606v-.006z" fill="#AD6553"/><path d="M185.496 161.543c-4.56-3.597-11.155-4.913-16.856-5.48-5.965-.592-12.113.038-17.455 2.897-10.532 5.644-13.209 19.356-12.239 30.096-.29-.775.516 2.721.101 3.445-.416.725-2.331-1.7-2.123-.9.642 2.456 1.304 4.963 2.709 7.092.932 1.405 1.184-.995 2.607-1.959 3.988-2.702.208-14.783 5.109-24.332 2.45-4.775 6.356-6.885 11.238-4.409 2.74 1.392 5.7 2.173 8.812 2.047 2.721-.114 4.989-1.065 7.521-1.928 4.643-1.581 8.945-.592 10.469 4.41 2.224 7.3.548 15.186 2.104 22.637.781 3.742 3.244 4.315 4.762-.126 3.799-11.13 3.288-25.554-6.771-33.484l.012-.006z" fill="#66362D"/><path d="M136.489 188.735c6.526-4.12 9.632 18.455 4.611 18.783-2.135.138-3.685-3.994-4.315-5.657-1.14-3.023-4-10.796-.296-13.133v.007zm57.996 1.555c-5.971-3.313-9.814 17.618-5.341 17.53 1.902-.038 5.152-3.741 5.637-5.329.889-2.891 3.087-10.324-.296-12.201z" fill="#AD6553"/><path d="M167.708 440.725c8.699.976 17.442 1.134 26.147.227 7.396-1.21 14.595-3.2 21.569-5.934.51-.233 1.02-.479 1.53-.718-.126-.995-.22-1.959-.239-2.86-.139-6.834-.284-13.668-.46-20.502-.359-13.958-.825-27.91-1.537-41.85-1.392-27.299-3.71-54.572-7.912-81.569a543.503 543.503 0 00-3.981-22.531c-.649-3.269-1.058-11.886-6.041-11.287a1.643 1.643 0 00-.403.113c-.415-.485-1.152-.655-1.688-.378-1.171.617-1.184-.107-2.11 1.31-1.732 2.658-4.617 12.088-28.793 12.062-10.602-.012-21.562-1.801-30.444-8.125-.812-.58-1.688-1.216-2.677-1.178.34-.013-1.342-3.817-2.526-.863-7.811 19.495-11.269 40.577-14.356 61.332a681.434 681.434 0 00-6.463 64.235 669.935 669.935 0 00-.938 32.785 741.102 741.102 0 000 7.603c19.918 7.59 40.176 14.896 61.309 18.134l.013-.006z" fill="#4F3333"/><path d="M128.634 294.907c18.387 5.631 38.091 5.909 57.058 3.698 7.458-.87 14.866-2.142 22.204-3.748-.353-2.45-.712-4.901-1.09-7.344a543.503 543.503 0 00-3.981-22.531c-.649-3.269-1.058-11.886-6.041-11.288a1.644 1.644 0 00-.403.114c-.415-.485-1.152-.655-1.688-.378-1.172.617-1.184-.107-2.11 1.31-1.732 2.658-4.617 12.087-28.793 12.062-10.602-.013-21.562-1.801-30.444-8.125-.812-.58-1.688-1.216-2.677-1.178.34-.013-1.342-3.817-2.526-.863-4.441 11.073-7.471 22.663-9.827 34.41a89.636 89.636 0 0010.312 3.861h.006z" fill="#FFF6ED"/><path d="M146.14 248.214c-.145-.296-.41-.535-.819-.642a71.588 71.588 0 00-23.754-2.18c-8.277.624-17.436-2.173-25.89-2.097-9.656.082-20.138 2.576-23.552 12.661-.554 1.637-7.445 9.996-4.61 19.664-1.865 9.297.912 54.473-.63 63.826-4.127 25.051-9.103 89.45-2.426 112.333 2.413 8.271 12.227 13.713 19.452 17.731 10.21 5.676 21.839 8.938 33.372 10.501 4.737.642 2.558-20.264 2.879-23.369 5.512-53.37 9.468-106.085 20.214-157.93 3.439-16.604 1.946-32.647 6.904-48.86.283-.92-.397-1.549-1.14-1.638z" fill="#DEFC42"/><path d="M166.234 135.825c-.454-.75-1.197-1.38-2.035-1.827-9.146-4.881-23.401-9.032-20.069-22.783.933-3.848 3.49-8.358 7.622-9.574 2.01-.592 4.706-.308 6.387 1.033 1.72 1.373 2.224 3.546 4.838 3.528 2.425-.019 4.674-.863 5.827-3.081.145-.283.183-.56.145-.818.661-.542-5.518-6.778-6.091-7.326-11.849-11.313-24.063-3.64-32.768 6.96a151.738 151.738 0 00-10.589 14.632c-.114.177-11.515 6.753-11.515 6.753-.158.037 7.767 23.645 8.661 23.11 2.003-1.203 3.981-2.494 6.028-3.615 2.709-1.487 5.626-1.141 8.599-1.43 1.663-.164 3.779-.964 5.864-1.94 5.197-2.425 11.137-2.696 16.498-.649 2.236.857 16.73 3.861 12.604-2.973h-.006z" fill="#AD6553"/><path d="M180.797 139.988c5.512-1.6 11.408-.831 16.391 2.016 2.003 1.146 4.044 2.116 5.688 2.419 2.935.535 5.877.434 8.453 2.141 1.946 1.285 3.811 2.74 5.707 4.101.844.611 10.696-22.26 10.545-22.311 0 0-10.816-7.501-10.917-7.684-2.815-5.329-5.914-10.494-9.341-15.457-7.792-11.282-19.332-19.942-32.075-9.644-.618.498-7.295 6.198-6.677 6.797-.057.251-.044.529.075.825.888 2.129 4.41 4.579 6.747 3.262.579-.327 1.045-.818 1.555-1.247 2.741-2.324 6.898-2.828 10.123-1.253 3.484 1.7 4.926 5.738 5.487 9.347 2.185 13.977-12.372 16.938-21.89 21.038-.875.378-1.669.945-2.179 1.657-4.68 6.469 10.015 4.674 12.315 4.006l-.007-.013z" fill="#AD6553"/><path d="M263.139 440.467c1.134-6.583-.069-15.143-.126-21.353-.088-9.468-.529-18.928-1.253-28.364-1.399-18.159-3.862-36.231-6.973-54.176-3.011-17.341 3.111-41.912-.819-59.064-2.375-10.355-5.052-21.939-17.077-26.423-8.019-2.986-50.324-7.805-56.585-4.466-.447.239-.642.611-.661.989-.492.138.22 2.683.308 3.363 7.647 60.343 14.715 118.493 21.795 178.905 2.003 17.108 3.591 34.266 3.893 51.493.013.561.302.932.687 1.134-.24 1.587.756 3.011 2.469 3.263 2.91.422 6.721-2.747 9.071-4.114a175.887 175.887 0 0019.464-13.164c7.653-5.946 22.129-15.653 25.177-25.365.265-.838.473-1.726.63-2.652v-.006zM126.09 249.947c.415-.58.447-1.481-.315-1.997-9.745-6.545-19.131-13.612-28.07-21.221a305.813 305.813 0 01-12.742-11.489c-4.832-4.611-11.685-10.147-12.006-17.41-.151-3.407 1.323-6.733 3.414-9.435 5.694-7.351 35.987-28.433 45.561-35.752 2.369-1.815-3.899-27.778-11.735-34.14-2.054-1.663-25.902 11.684-32.699 15.678-16.97 9.977-34.765 21.926-46.556 37.988-4.466 6.084-12.07 13.693-13.613 21.151-1.631 7.88-2.192 16.585.838 23.936 6.047 14.67 50.235 83.245 53.75 99.521.038.491 15.792-18.783 16.39-18.582.19.063.379.107.567.158.31.201.637.252.945.195 4.322.617 8.082-2.349 11.269-5.14 4.12-3.609 7.837-7.646 11.144-12.012 6.777-8.944 11.603-19.224 14.28-30.114.138-.573-.07-1.027-.429-1.323l.007-.012z" fill="#DEFC42"/><path d="M202.435 251.269c2.671 10.891 7.502 21.17 14.28 30.115 3.307 4.365 7.023 8.409 11.143 12.012 3.187 2.79 6.954 5.757 11.269 5.139.309.057.636.007.945-.195.189-.05.372-.094.567-.157.598-.202-.227 31.254 10.186 23.406 1.008-20.062 61.63-91.496 60.156-121.252-.378-7.603-6.557-20.729-11.023-26.814-11.792-16.068-31.527-29.384-48.497-39.361-6.797-3.994-29.656-15.647-31.71-13.984-7.836 6.362-15.099 30.638-12.724 32.446 9.575 7.319 39.867 28.401 45.561 35.752 2.092 2.702 3.559 6.021 3.415 9.435-.315 7.263-7.169 12.799-12.007 17.41a305.3 305.3 0 01-12.743 11.489c-8.938 7.615-18.324 14.676-28.069 21.221-.762.516-.73 1.417-.314 1.997-.353.289-.567.749-.423 1.322l-.012.019zm-53.272-5.568c2.11-6.192-16.214-4.963-22.11-2.551-3.036 1.241-3.313 3.15-3.641 6.249a222.095 222.095 0 00-1.089 15.444 224.013 224.013 0 00.97 30.285c.926 9.247-2.331 20.112 1.537 28.66.434.957 3.483 12.301 3.534 11.381.466-7.829 10.922-60.474 20.799-89.468z" fill="#DEFC42"/><path d="M179.399 247.824c5.096 27.312 10.583 87.339 10.583 87.339 1.033-.844 1.039-15.224 1.442-16.496 3.843-11.981 6.551-24.307 8.466-36.735a331.36 331.36 0 002.343-18.997c.303-3.175.567-6.356.8-9.537.164-2.255 1.065-5.467-.737-7.3-1.587-1.619-6.866-2.003-8.963-2.4-3.477-.661-15.25-2.878-13.94 4.126h.006z" fill="#DEFC42"/><path d="M126.707 249.493c-.416-.756-1.575-.082-1.159.674 4.945 9.039 7.849 18.878 8.579 29.157.063.857 1.405.863 1.342 0a72.808 72.808 0 00-8.762-29.837v.006zm74.348 1.707a382.335 382.335 0 00-13.511 24.093c-.391.768.762 1.442 1.159.674a375.934 375.934 0 0113.511-24.093c.454-.737-.711-1.411-1.159-.674zM77.347 274.632c-.132-.851-1.424-.492-1.291.359 1.146 7.306 2.293 14.613 3.439 21.926.132.85 1.424.491 1.291-.359-1.146-7.307-2.293-14.613-3.439-21.926zm173.862 7.64c-1.518 7.143-3.043 14.292-4.561 21.435-.176.844 1.115 1.203 1.292.359 1.518-7.143 3.042-14.292 4.56-21.435.177-.844-1.115-1.203-1.291-.359zm-121.39 36.004c.012-1.405-.252-2.69-.851-3.483-1.461-1.947-4.214-1.109-5.152.812-.901 1.852-1.374 7.458.296 9.039 3.244 3.061 5.669-2.198 5.7-6.368h.007zM67.413 173.819c.038-.863-1.297-.863-1.341 0a53.093 53.093 0 00.774 11.823c.151.85 1.443.491 1.292-.359a51.42 51.42 0 01-.725-11.464zm194.126 4.894c-.107-.844-1.448-.856-1.341 0 .472 3.685.409 7.332-.233 10.998-.152.844 1.14 1.203 1.291.359.668-3.779.775-7.54.283-11.35v-.007zm-31.394-49.962a119.371 119.371 0 00-8.359 27.923c-.145.844 1.146 1.209 1.291.359a118.047 118.047 0 018.22-27.602c.341-.781-.812-1.467-1.159-.674l.007-.006zm-132.578-.346c-.434-.75-1.593-.07-1.159.674a78.376 78.376 0 019.65 27.45c.133.85 1.424.491 1.292-.359-1.512-9.826-4.813-19.161-9.79-27.772l.007.007z" fill="#4F3333"/><path d="M164.546 101.288c-3.446 1.531-5.481-3.18-7.969-4.591-1.606-.907-3.496-1.216-5.322-1.096-4.41.29-8.082 3.225-11.081 6.223-3.363 3.37-4.207 6.273-3.703 11.016.661 6.249-.939 11.754-5.815 15.962-.686.592.315 1.587.996.995 3.099-2.671 5.297-6.16 6.129-10.198 1.14-5.556-1.877-10.96 2.349-15.703 3.918-4.397 10.728-9.618 16.536-5.354 2.796 2.054 4.648 5.713 8.585 3.962.825-.365.114-1.581-.712-1.216h.007zm40.969 30.638c-3.723-4.239-6.293-9.19-7.471-14.714-.957-4.523-1.26-9.209-3.855-13.184-1.808-2.765-4.548-4.963-7.848-5.587-1.481-.277-3.011-.24-4.46.17-3.024.85-5.632 3.761-9.065 2.23-.819-.365-1.537.85-.711 1.216 3.143 1.404 5.536-.057 8.421-1.386 6.369-2.935 12.082 1.701 14.199 7.634 1.669 4.674 1.663 9.732 3.47 14.393 1.468 3.792 3.648 7.174 6.325 10.223.598.68 1.593-.315.995-.995z" fill="#8A4230"/><path d="M153.44 98.31c-3.653-.505-7.193.73-9.644 3.52-.598.68.397 1.676.996.995 2.091-2.381 5.108-3.59 8.27-3.155.889.12 1.273-1.235.372-1.36h.006z" fill="#8A4230"/><path d="M180.697 193.66c-.082 1.745-.668 3.062-2.073 3.068-1.776 0-1.858-1.506-1.776-3.25.082-1.745.712-3.068 2.072-3.068 1.858 0 1.858 1.506 1.777 3.25z" fill="#2B141B"/><path d="M180.268 193.66c-.082 1.745-.239 3.062-1.644 3.068-1.776 0-1.858-1.506-1.776-3.25.082-1.745.712-3.068 2.072-3.068 1.858 0 1.43 1.506 1.348 3.25zm-28.321-1.215c-.031 1.744.473 3.099 1.871 3.193 1.77.12 1.953-1.379 1.978-3.13.032-1.745-.516-3.106-1.871-3.194-1.852-.12-1.952 1.38-1.978 3.131z" fill="#2B141B"/><path d="M182.561 180.779c-1.858-1.039-4.315-1.486-6.318-.623-1.442.617-2.633 2.406-1.852 4.037.895 1.877 2.923 1.802 4.693 1.562 1.436-.195 5.033.542 5.921-.951.838-1.404-1.386-3.433-2.45-4.031l.006.006zm-31.798-.516c1.827-1.096 4.271-1.606 6.299-.806 1.462.579 2.696 2.33 1.966 3.987-.844 1.902-2.866 1.883-4.649 1.7-1.442-.151-5.014.687-5.946-.781-.876-1.379 1.285-3.47 2.33-4.094v-.006z" fill="#65372F"/><path d="M164.495 202.85c-.85-1.083-1.814-2.261-1.877-3.703-.069-1.443.687-2.822 1.329-4.057.422-.812-.812-1.511-1.234-.699-.769 1.474-1.569 3.068-1.512 4.775.057 1.719 1.064 3.118 2.085 4.415.554.712 1.783-.013 1.216-.737l-.007.006zm4.466-1.272l-1.669-.92c-.8-.441-1.499.794-.699 1.235a230.4 230.4 0 001.669.92c.8.44 1.499-.794.699-1.235z" fill="#8A4230"/><path d="M171.638 209.603c-1.593-.196-3.149.252-4.737.359-1.543.1-3.181.132-4.711-.12-1.046-.17-2.287-.869-3.345-.655-2.016.409.844 4.17 3.496 4.478 2.614.309 5.449.567 7.603-.976.39-.283 3.25-2.904 1.701-3.093l-.007.007z" fill="#fff"/><path d="M192.665 194.46a67.107 67.107 0 01-1.254 5.575c-.239.882 1.134 1.241 1.374.359a65.06 65.06 0 001.253-5.575c.164-.894-1.216-1.259-1.373-.359zm-51.464 4.642c-.737-2.349-1.474-4.692-2.205-7.042-.27-.869-1.637-.478-1.366.397.737 2.35 1.474 4.693 2.204 7.042.271.87 1.638.479 1.367-.397z" fill="#8A4230"/></g></g><defs><clipPath id="clip0_6_124"><path fill="#fff" d="M0 0h325.33v324H0z"/></clipPath><clipPath id="clip1_6_124"><path fill="#fff" transform="translate(16 89.39)" d="M0 0h295v442H0z"/></clipPath></defs></svg>