<svg width="326" height="324" fill="none" xmlns="http://www.w3.org/2000/svg"><g clip-path="url(#clip0_6_234)"><path fill="#8DED60" d="M.66 0H326v324H.66z"/><g clip-path="url(#clip1_6_234)"><g clip-path="url(#clip2_6_234)"><path d="M237.538 175.257c-1.317-8.404-5.57-15.743-10.373-22.587-5.18-7.388-10.067-14.97-15.044-22.497-4.013-6.064-9.343-11.287-16.183-13.929-9.588-3.7-21.656-3.676-31.436-.683-3.647 1.112-7.133 2.871-10.103 5.241-13.098 10.441-17.662 29.329-16.44 45.465.245 3.259.659 6.566 1.443 9.734 2.348 9.516 5.995 15.06 15.656 18.959 3.365 1.959 9.57 2.171 13.505 2.57 5.791.586 11.678.883 17.446-.073 2.551-.423 5.048-1.118 7.414-2.152 3.444-1.499 6.426-4.728 10.463-3.712 3.252.816 6.145 3.017 9.247 4.262 2.875 1.155 5.947 1.941 9.067 1.929 5.097-.012 9.876-2.153 12.751-6.366 3.24-4.74 3.438-10.702 2.581-16.173l.006.012z" fill="#8C5441"/><path d="M295.721 336.185c3.294-17.285-9.953-44.498-14.23-50.332 0 0-23.77 21.584-23.111 22.376 13.679 16.378 2.497 27.956-14.236 41.426-.491.399 1.204 14.449 1.545 14.788.006.036.389-2.455.401-2.418 1.348 4.377 16.111 7.454 17.644 6.614 25.891-14.317 30.604-25.229 31.981-32.454h.006z" fill="#F4B890"/><path d="M292.158 308.634c-9.313-26.009-16.931-33.131-23.196-41.94-.407-.574-1.06-.629-1.563-.405-4.312-2.146-8.522-3.561-13.313-1.905-4.265 1.476-8.133 4.42-11.086 7.812-3.815 4.377-8.283 13.512-3.126 17.853-.03.399.113.822.509 1.118 8.45 6.336 14.912 13.682 23.213 25.84 4.246 6.221 12.463 7.165 19.5 1.04 3.127-2.72 1.36-.496 1.827-4.631.497-4.407 8.684-.725 7.235-4.782zm-186.486-175.71c-2.377-7.902-11.894-12.992-19.296-15.121-6.343-1.825-13.026 2.564-17.219 6.844-19.266 19.667-35.12 54.782-40.6 69.177-5.048 13.258-9.989 27.079-10.234 41.438-.126 7.376 1.024 15.386 5.779 21.281 4.839 6.004 12.355 5.84 19.32 5.314 11.392-.852 23.669-2.188 34.024-7.376.832-.417-.88-3.44-1.324-3.966 3.03-4.195-.886-6.045-1.455-10.961-.904-7.811 1.779-10.507-1.868-17.496.227-.774-1.234-3.247-2.252-3.12-5.385.647-13.056 3.368-18.32 5.091-.87.284-1.737-.454-1.63-1.367.797-6.916 2.432-14.933 4.528-21.432 4.755-14.782 12.619-28.234 21.315-40.991 3.258 1.221 7.594 1.499 11.103 1.475 6.492-.042 11.679-5.127 14.757-10.459 1.605-2.787 2.809-5.858 3.402-9.032.132-.696.246-1.403.3-2.104.053-.744-.318-1.566-.288-2.159.042-.756.563-1.445.575-2.285.012-.925-.341-1.874-.605-2.745l-.012-.006z" fill="#F4B890"/><path d="M279.317 285.285c.414-1.034.767-2.122.725-3.229-.048-1.257-.605-2.43-1.144-3.561-7.947-16.626-19.817-35.416-32.167-49.243-12.96-14.51-45.869-20.38-46.055-19.842a137.507 137.507 0 00-4.097 14.322c-.802 3.525-1.377 7.558.749 10.472 1.078 1.481 2.719 2.442 3.959 3.79 3.767 4.087 3.072 10.429 3.336 16.004.575 12.285 7.007 23.717 15.577 32.46 8.57 8.736 19.189 15.108 29.873 21.027 1.102.611 2.276 1.233 3.528 1.149 1.096-.073 2.078-.677 3.006-1.264 6.702-4.226 13.703-8.796 18.524-14.933 1.701-2.17 3.138-4.534 4.186-7.146v-.006z" fill="#DEFC42"/><path d="M193.142 207.657c-4.372-4.904-5.246-12.237-5.246-18.356 0-6.124.215-12.248.533-18.367.083-1.632-1.773-2.116-2.947-1.469-2.569-.562-5.121-.211-7.738-.157-3.162.072-6.312-.048-9.468-.302-.869-.073-1.426.338-1.683.894-.815.321-1.474 1.077-1.294 2.11 1.048 5.931 1.455 11.977 1.03 17.981-.168 2.358-.497 4.939-1.88 6.983-1.797 2.66-5.073 3.307-8.122 3.942-.736.151-1.155.586-1.311 1.1-.988.901-.539 3.053 1.329 3.246 11.308 1.143 21.956 5.847 33.491 5.212.527-.03.934-.218 1.234-.496 1.431.103 3.306-.931 2.066-2.321h.006z" fill="#F4B890"/><path d="M193.142 207.656c-4.372-4.903-3.635-12.285-3.635-18.409 0-6.125.059-12.854.371-18.972.084-1.632-3.228-1.463-4.396-.816-2.569-.563-5.121-.212-7.738-.157-3.162.072-6.312-.049-9.468-.303-.869-.072-1.426.339-1.683.895-.815.32-2.654.707-2.474 1.735.731 4.13 1.036 10.067 1.048 14.359.012 3.869 1.545 7.624-.718 10.979-1.797 2.66-5.073 3.307-8.122 3.942-.736.151-1.155.587-1.311 1.101-.988.9-.539 3.053 1.329 3.246 11.308 1.143 21.956 5.846 33.491 5.212.527-.031.934-.218 1.234-.496 1.431.103 3.306-.931 2.066-2.322l.006.006z" fill="#D47D5D"/><path d="M190.985 123.85c-5.096-4.728-12.876-6.21-20.524-3.646-7.857 2.636-12.253 8.307-14.11 15.58-.054.206-.102.411-.15.611-1.772 7.418-1.221 15.096-.078 22.557 1.06 6.91 2.995 15.368 8.9 20.205 4.941 4.044 12.906 4.776 18.949 2.315 4.947-2.013 7.349-4.177 8.87-9.165 1.952-6.403 3.917-15.828 4.27-22.466.324-6.095.557-12.908-1.473-18.803-.994-2.89-2.605-5.302-4.648-7.201l-.006.013z" fill="#F4B890"/><path d="M189.285 152.797c0 1.487-.444 2.63-1.623 2.69-1.492.073-1.623-1.203-1.623-2.69 0-1.488.479-2.636 1.623-2.691 1.563-.078 1.623 1.203 1.623 2.691z" fill="#2B141B"/><path d="M192.645 141.999c-2.228-1.887-8.894-1.01-9.337 2.364-.348 2.623 3.551 2.986 5.246 2.654 1.515-.303 4.168-1.101 4.689-2.793.3-.962.024-1.699-.598-2.225zm-23.747-.055c-2.144-1.789-6.091-2.442-7.103.024-.563 1.379.138 2.437 1.263 3.199.797.78 1.971 1.287 2.965 1.584 1.425.429 3.186.368 3.983-1.131.718-1.348.084-2.684-1.102-3.676h-.006z" fill="#8C5441"/><path d="M163.424 152.216c-.054 1.536.366 2.739 1.593 2.842 1.551.133 1.731-1.185 1.785-2.727.054-1.536-.401-2.739-1.593-2.841-1.623-.14-1.731 1.185-1.785 2.726z" fill="#2B141B"/><path d="M224.871 237.783c-.682-1.983.324-5.889.324-8.053 0-2.842-.144-5.683-.246-8.525-.119-3.458-8.043-5.06-10.714-6.185-4.498-1.898-8.989-3.79-13.481-5.701-3.929-1.669-5.887-3.216-7.576-7.527-1.563-3.984-1.617-8.506-1.869-12.745-.198-3.325-1.036-3.016-2.198-2.629-6.582 2.176-17.41 1.505-23.609-1.645-2.281-1.155-1.808 4.486-1.964 5.683-.431 3.277-1.401 6.747-4.761 8.035-5.211 1.995-10.9-.024-16.2-.363-6.918-.441-14.075.907-20.938 1.735-7.57.907-15.128 2.008-22.596 3.574-7.271 1.529-14.47 3.506-21.417 6.16-3.138 1.197-18.069 5.859-16.398 10.931 1.635 4.982 6.282 23.494 5.486 39.999-.03.647.305 1.185 1.12 1.246 21.56 1.511 41.516-4.25 42.522-3.749 1.82.913 1.503 2.908 1.599 4.637.257 4.607.677 9.208 1.24 13.785 1.101 8.899 2.76 17.726 4.827 26.45.706 2.987 10.325 38.555 12.87 37.279-.814.411 1.509 7.176 2.653 7.557.371.121.749.23 1.12.345.246.484.479.973.725 1.457.593 1.161 2.138.484 2.204-.58 16.511 4.637 33.814 4.83 50.84 3.512 4.63-.356 9.253-.822 13.871-1.336 4.078-.453 8.9-.345 12.792-1.747 2.953-1.064 4.318-3.652 5.253-6.512 1.527-4.661 2.677-9.498 3.767-14.274a227.48 227.48 0 003.264-17.563c3.515-8.869 5.983-18.077 6.384-27.744.647-15.49-3.785-30.713-8.888-45.501l-.006-.006z" fill="#DEFC42"/><path d="M199.077 156.327a1.393 1.393 0 01.066-.985c5.096-10.75 6.713-24.111-1.767-33.639-3.983-4.48-9.427-6.221-15.218-6.777-4.169-.399-8.672-.52-12.499 1.13a1.46 1.46 0 01-.683.103c-.479-.03-.958.205-1.114.81 0 .012 0 .024-.006.036-.479.303-.946.647-1.395 1.028a1.412 1.412 0 01-.887.333c-3.246.066-6.504 1.844-8.881 4.038-8.684 8.017-7.87 21.028-2.701 30.719.521.973 2.203.568 2.12-.58-.521-7.261 2.653-18.549 9.941-21.965.755-.357 1.647.073 1.863.883 1.078 4.032 3.066 7.823 5.947 11.027a27.092 27.092 0 009.798 6.917c4.12 1.699 10.577 2.11 12.769 6.408-.066.357.054.69.263.938.126.151.222.326.27.513.06.236.107.484.143.738.204 1.457 2.396.84 2.198-.611a8.704 8.704 0 00-.227-1.07v.006z" fill="#8C5441"/><path d="M197.16 151.509a4.25 4.25 0 00-.988.532c-.275.199-2.168 1.802-2.072 2.152 1.24 4.456 1.204 6.911.515 11.463 1.539-.187 3.282-2.654 3.965-3.833 1.168-2.031 2.27-4.456 2.425-6.826.096-1.463-.443-3.023-1.928-3.518a2.795 2.795 0 00-1.911.036l-.006-.006zm-41.102-.581c-3.228-1.692-5.211-.066-5.48 1.717-.551 3.694 3.33 11.935 6.989 13.495 1.701.725.407-14.202-1.509-15.212z" fill="#F4B890"/><path d="M197.843 153.594a26.659 26.659 0 00-1.647 6.119c-.108.725.988 1.034 1.096.308.311-2.11.856-4.141 1.647-6.118.275-.683-.827-.986-1.096-.309zm-41.57 5.811a93.438 93.438 0 00-2.641-6.312c-.311-.671-1.287-.085-.982.58a91.626 91.626 0 012.527 6.04c.258.683 1.36.387 1.096-.308zm-64.615-7.134a.895.895 0 01-.845-.605.901.901 0 01.551-1.155c3.222-1.148 5.636-4.008 6.457-7.66.071-.32.137-.653.203-.985.425-2.147.91-4.577 3.192-5.822.995-.545 2.546-.925 3.672-.23.425.26 1.126.913 1.09 2.309a.906.906 0 01-.923.883.902.902 0 01-.874-.931c.012-.375-.072-.617-.234-.719-.359-.224-1.179-.097-1.874.278-1.539.84-1.905 2.654-2.282 4.582-.072.351-.138.696-.216 1.028-.958 4.262-3.803 7.618-7.612 8.972a.879.879 0 01-.3.055h-.005z" fill="#D47D5D"/><path d="M101.762 137.64c-.054 0-.108 0-.162-.012a.91.91 0 01-.725-1.052c.581-3.241-7.78-8.712-13.188-11.403a.912.912 0 01-.407-1.215.896.896 0 011.204-.411c1.557.774 15.17 7.721 14.164 13.349a.893.893 0 01-.88.744h-.006zm-5.834 8.089c-.767 0-1.432-.248-1.857-.526l-.61-.393.25-.683c2.528-6.862-11.816-13.24-11.96-13.307a.908.908 0 01-.466-1.191.894.894 0 011.18-.472c.634.279 15.008 6.681 13.181 14.74.575.085 1.444-.072 2.294-1.354a.892.892 0 011.246-.248c.413.278.52.84.245 1.258-1.108 1.668-2.413 2.176-3.51 2.176h.007z" fill="#D47D5D"/><path d="M91.442 148.051a4.02 4.02 0 01-1.635-.345l-.539-.26.024-.598c.3-7.026-11.996-10.26-12.121-10.296a.903.903 0 01-.647-1.101.9.9 0 011.09-.659c.55.139 13.086 3.44 13.475 11.409.305.048.707.054 1.108-.121.635-.272 1.15-.931 1.515-1.953a.895.895 0 011.15-.544.908.908 0 01.54 1.161c-.552 1.535-1.408 2.545-2.54 3.016a3.728 3.728 0 01-1.42.279v.012zm-6.912.513a.902.902 0 01-.897-.876c0-.024-.072-.647-2.073-2.382-.694-.605-2.24-1.367-4.342-2.146-1.49-.557-2.76-.925-2.773-.932a.91.91 0 01-.61-1.124.899.899 0 011.114-.617c.053.018 1.335.393 2.886.968 2.372.876 4.019 1.711 4.893 2.472 1.833 1.59 2.665 2.733 2.695 3.7a.902.902 0 01-.868.937h-.03.006z" fill="#D47D5D"/><path d="M85.657 151.866c-1.365 0-2.713-.369-3.749-.653-1.45-.399-2.491-1.191-3.096-2.346-1.024-1.965-.455-4.359-.024-5.611.162-.465.677-.743 1.144-.586.467.157.73.635.58 1.112 0 .006-.023.067-.023.073-.27.78-.82 2.757-.084 4.165.365.702 1.012 1.173 1.976 1.439 1.563.43 3.701 1.016 5.175.133.844-.507 1.425-1.463 1.766-2.914a.893.893 0 011.084-.671.906.906 0 01.665 1.094c-.455 1.929-1.323 3.295-2.593 4.057-.88.526-1.85.714-2.815.714l-.006-.006z" fill="#D47D5D"/><path d="M76.542 156.521a.896.896 0 01-.875-.708.908.908 0 01.677-1.082c1.48-.338 2.443-.979 2.857-1.904.802-1.802-.51-4.244-.527-4.269a.911.911 0 01.353-1.233.898.898 0 011.222.351c.072.133 1.76 3.246.599 5.882-.66 1.481-2.037 2.473-4.103 2.945-.066.012-.132.024-.198.024l-.005-.006zm-26.4 81.752a.903.903 0 01-.886-.774c-.276-1.887-.282-4.148-.24-5.707.09-3.314.15-3.356.545-3.628a.896.896 0 011.407.786c0 .03 0 .054-.005.085-.03.302-.414 4.897.072 8.204a.906.906 0 01-.893 1.04v-.006zm126.033-75.821c-.779-.913-1.635-1.953-2.049-3.102-.617-1.711.354-3.137 1.36-4.443.443-.575-.353-1.397-.803-.81-1.042 1.348-2.168 2.865-1.904 4.685.245 1.699 1.521 3.235 2.593 4.486.479.562 1.282-.254.803-.81v-.006zm3.869-1.76a4.572 4.572 0 00-2.576-.701c-.73.018-.736 1.173 0 1.149a3.498 3.498 0 012.001.544c.623.393 1.198-.605.575-.992zm3.144 6.742c-.006-.037-.018-.079-.024-.115-.258-1.016-1.599-.278-2.234-.145a17.036 17.036 0 01-3.36.338c-2.156.018-4.3-.308-6.42-.677-.306-.054-.845.23-.982.502-.108.218-.042.496.101.689 1.539 2.116 4.199 2.878 6.702 2.721 1.491-.091 6.63-1.046 6.223-3.313h-.006z" fill="#D47D5D"/><path d="M228.153 252.172c-.281-.713-1.437-.405-1.156.32 4.834 12.322 6.361 25.635 4.372 38.742-.113.762 1.037 1.088 1.156.321 2.025-13.326.551-26.838-4.372-39.383zm-34.173 33.337a154.583 154.583 0 01-18.877 38.215c-.437.641.599 1.252 1.036.611a155.701 155.701 0 0018.997-38.506c.246-.738-.91-1.058-1.156-.32zm-8.78-79.89c-6.647 3.229-14.613 1.917-19.925-3.234-.557-.538-1.401.314-.844.852a18.815 18.815 0 0021.38 3.428c.695-.338.09-1.378-.605-1.046h-.006zm-62.735 44.685l-6.57 2.466c-.718.273-.407 1.439.318 1.167l6.57-2.466c.718-.272.407-1.439-.318-1.167z" fill="#3D2323"/><path d="M202.682 157.93c-.647-.345-1.222.647-.575.991 8.858 4.722 24.244 13.519 21.561 25.731-.156.72.94 1.028 1.096.309 2.832-12.908-12.709-22.031-22.082-27.025v-.006zm-41.641 26.474c-5.348-3.482-5.259-10.211-4.995-15.924.036-.738-1.102-.738-1.138 0-.282 6.179-.162 13.192 5.558 16.916.617.399 1.192-.593.575-.992zm19.601-66.812c-5.953.248-13.864 2.805-13.229 10.29.06.731 1.203.737 1.138 0-.575-6.802 6.737-8.924 12.091-9.142.731-.03.737-1.179 0-1.148zm35.198 39.104c-9.367-8.676-10.121-24.34-22.111-30.519-.653-.339-1.228.653-.575.991 11.804 6.089 12.606 21.753 21.883 30.344.539.502 1.348-.314.803-.81v-.006zm-2.588-10.393a90.529 90.529 0 01-2.497-7.648c-.198-.713-1.294-.411-1.096.309a89.944 89.944 0 002.497 7.648c.258.683 1.36.387 1.096-.309zm-12.576 27.098c-.431-.593-1.42-.018-.982.58 2.629 3.622 3.725 7.896 3.054 12.352-.108.725.988 1.034 1.096.308.713-4.746-.353-9.359-3.168-13.24z" fill="#633524"/></g></g></g><defs><clipPath id="clip0_6_234"><path fill="#fff" transform="translate(.66)" d="M0 0h325.34v324H0z"/></clipPath><clipPath id="clip1_6_234"><path fill="#fff" transform="translate(12 113.39)" d="M0 0h347.407v421.942H0z"/></clipPath><clipPath id="clip2_6_234"><path fill="#fff" transform="translate(18.316 113.39)" d="M0 0h277.926v382.78H0z"/></clipPath></defs></svg>