<svg width="326" height="324" fill="none" xmlns="http://www.w3.org/2000/svg"><g clip-path="url(#clip0_6_174)"><path fill="#FCF542" d="M.33 0h325.33v324H.33z"/><g clip-path="url(#clip1_6_174)"><path d="M200.282-6.47l-2.807 42.895c-.892 13.662-1.85 27.321-2.676 40.987-.687 11.345-1.132 22.789.003 34.117 1.237 12.346-4.381 7.063 2.153 17.662-1.298 1.578-7.386 19.376-4.619 19.971 22.492 4.852 45.381-2.629 53.855-14.599 6.997-9.881 7.517-18.776 9.172-30.476 5.058-35.82 2.715-73.119-5.829-108.209-1.864-7.642-4.359-14.31-11.354-18.578-6.564-4.005-14.612-5.973-22.347-6.853a3 3 0 00-1.963-1.719c-5.031-1.458-9.471 2.17-11.197 6.717-2.13 5.625-1.995 12.157-2.383 18.079l-.008.006z" fill="#8DED60"/><path d="M58.048-121.157C51.7-96.253 44.884-71.751 41.333-46.127 37.465-18.212 36.32 10.7 39.175 38.975c1.864 18.438-3.91 36.584 7.163 51.958 8.59 11.926 29.949 25.715 42.788 32.314 18.44 9.469 37.26 16.774 57.389 22.609 21.267 6.166 44.583 8.445 69.542 4.13 10.706-1.851 21.686-6.126 27.65-15.662 6.193-9.891 5.961-18.894 5.817-30.262-.196-15.032-1.754-29.966-5.554-44.528-3.815-14.609-9.35-28.687-14.918-42.697a736.12 736.12 0 00-3.483-8.653A2043.774 2043.774 0 00241.8-74.881c.497-2.848-15.787-9.455-17.669-10.352-9.993-4.76-19.962-9.575-30.196-13.802-40.084-16.549-83.227-25.622-126.154-30.856-7.304-.891-8.189 2.659-9.742 8.747l.01-.013z" fill="#8DED60"/><path d="M130.134 131.841c4.804 13.752 4.199 21.885 5.115 28.663.331 2.441 2.938 3.01 4.557 2.056.634-.075 1.267-.381 1.794-1.03 3.625-4.441 9.143-7.42 13.605-10.955 4.632-3.67 9.059-7.582 13.349-11.656 1.582-1.502.722-3.368-.804-4.179-1.12-5.831-2.234-11.661-3.354-17.5a2.981 2.981 0 00-.392-1.005c.148-1.103-.313-2.231-1.668-2.769-10.736-4.234-19.996 3.909-26.583 11.571-3.946 4.597-7.534 1.311-5.619 6.804z" fill="#D37C61"/><path d="M123.8 127.324c-.179 8.157 8.774 17.746 9.282 16.116 2.402-7.769 10.719-23.85 19.443-25.472 7.594-1.405 12.521 7.786 13.642 13.802.282 1.507 1.532 2.191 2.97 1.808 1.886-.504 3.461-1.324 4.97-2.563.18-.149.317-.312.441-.485.9-.077 1.798-.599 2.114-1.683 1.928-6.577 1.51-10.574 1.197-17.424-.513-11.058-5.182-24.96-7.509-18.617-1.166 3.185-2.869 8.916-4.479 12.927-.522 1.309-1.938 2.059-3.299 1.698a21.347 21.347 0 00-4.1-.677c-1.339-.091-2.402-1.152-2.556-2.49a56.386 56.386 0 00-3.399-13.748c-.265-.695-.937-1.434-1.693-1.378-18.201 1.454-26.897 33.15-27.009 38.189l-.015-.003z" fill="#F5E8DC"/><path d="M127.497 190.616c-.003.066.016.129.02.196 1.623 14.944 7.964 31.037 25.525 33.638 10.627 1.57 21.621-4.35 28.953-11.729 15.811-15.908 11.367-45.107 5.128-64.349-3.177-9.812-8.273-21.21-18.874-22.434-7.675-.885-16.393-1.953-23.23 5.106-14.087 14.532-17.066 38.861-17.522 59.572z" fill="#F4B890"/><path d="M117.078 199.476c-.354 3.198-.32 7.104 3.686 7.714 3.913.596 7.016-3.181 9.406-5.702 3.933-4.154 7.28-8.796 10.123-13.757.557-.97-.122-1.851-.968-2.062-.481-2.925-.73-5.872-.671-8.843.059-3.068.812-6.031.971-9.075.157-2.889-.854-5.24-3.953-5.563-3.157-.325-8.621-.155-10.588 2.812-1.33 2.009-1.577 4.817-2.129 7.13-.788 3.321-1.583 6.64-2.372 9.961-1.365 5.748-2.857 11.498-3.512 17.384l.007.001z" fill="#A8654E"/><path d="M122.331 176.174c7.181 4.95 10.703-3.89 11.784-7.416.639-2.076 4.626-18.279-3.728-15.469-.023.011-.053.013-.077.024-3.491 1.097-5.163 5.12-6.421 7.549a34.478 34.478 0 00-3.071 8.387c-.498 2.21-1.235 5.028 1.521 6.926l-.008-.001zM236.975 20.81c5.441 14.752 9.816 29.874 13.197 45.243.172.77-.059 1.556-.569 2.148a29.024 29.024 0 00-5.109 8.502c-.279.719-.865 1.276-1.615 1.474-2.164.577-4.251 1.315-6.007 2.892-3.194 2.873-3.606 7.344-3.037 11.373.499 3.551 1.353 8.198 4.779 10.019.169.095.351.161.531.235-.185 4.626 1.127 9.087 6.312 10.6.24.069.482.13.725.184a2.493 2.493 0 011.865 1.688c.422 1.322.994 2.586 1.769 3.742 1.901 2.835 8.599 3.911 11.515 3.529 1.746-.229 2.597 1.555 3.905 2.337 5.352 3.179 11.312-2.806 13.478-7.283 2.756-5.701 3.388-12.718 4.229-18.929 1.256-9.28 1.93-18.715 1.141-28.06-.806-9.11-2.371-18.142-4.499-27.035-3.133-13.105-7.459-25.92-12.474-38.41-.542-1.363-1.688-1.778-2.778-1.576a2.455 2.455 0 01-1.11-.046c-7.106-1.979-14.567-1.991-21.647.305-2.927.95-6.907 2.235-7.767 5.677-.901 3.607 1.943 8.115 3.158 11.396l.008-.006zM76.174 8.215c7.008 10.965 11.451 23.465 15.578 35.87.971 2.916 2.768 6.395 3.108 9.46.417 3.783-.866 3.071-3.164 6.214-3.54 4.834-3.359 11.032-3.01 16.746.238 3.88-.126 8.604 1.758 12.097 1.838 3.404 7.049 2.926 7.686 6.44 1.166 6.38 5.414 10.3 12.492 9.939.12-.011 8.79 2.637 8.91 2.715 2.46 1.532 7.282 2.497 10.375 1.618 12.358-3.512 13.238-18.474 12.525-29.118-1.039-15.399-4.45-30.854-8.994-45.574-2.092-6.782-4.767-13.428-7.711-19.88a195.297 195.297 0 00-4.892-9.956c-1.382-2.618-4.89-6.633-5.331-9.485a2.13 2.13 0 00-.326-.824c-4.251-6.508-12.336-8.883-19.573-6.99-8.24 2.153-14.23 9.096-18.298 16.558-.222.41-.292.798-.245 1.147-.99.5-1.674 1.798-.895 3.021l.007.002z" fill="#F4B890"/><path d="M35.628 67.231c4.577 13.05 9.41 26.525 21.439 34.431 1.678 1.102 18.373-47.675 19.189-70.158 2.576 2.136 5.634 3.58 9.4 3.81a211.547 211.547 0 005.277 9.536c.297.5.68.778 1.09.903.665.642 1.652.853 2.56.043 10.489-9.345 24.682-13.087 38.386-10.056 1.9.419 2.817-1.502 2.31-2.94a2.04 2.04 0 00.029-.915 40.373 40.373 0 00-5.292-14.389c2.388-7.636 1.091-15.995-1.7-23.528-3.716-10.003-8.741-19.913-13.621-29.4-8.143-15.835-24.807-35.42-44.71-33.002-9.114 1.107-16.036 7.092-21.912 13.742C31.746-36.235 26.52-16.022 27.351 8.115c.664 19.224 1.851 40.8 8.277 59.116zM222.585 11.18c2.872 8.22 6.229 16.281 10.158 24.05a168.06 168.06 0 006.335 11.42c1.023 1.678 2.002 3.808 3.387 5.218.635.645 4.169 2.165 4.265 2.714.232 1.402.419 2.812.544 4.233.076.813.492 1.348 1.046 1.63.472.877 1.462 1.526 2.677 1.19 11.053-3.034 23.012-1.242 32.68 4.933 5.424 3.465 3.205-10.033 2.927-11.746-.054-.35 3.924-4.92 4.344-5.824 1.095-2.336 1.748-5.004 2.18-7.537 1.368-8.01-.91-16.104-3.48-23.638-4.062-13.944-10.056-27.289-17.894-39.567-5.607-8.781-11.408-16.23-22.068-18.464-8.091-1.694-25.709 3.74-27.975 18.679-1.492 9.821-2.392 23.349.875 32.701l-.001.007z" fill="#8DED60"/><path d="M146.462 180.09c3.555 1.62 8.438 2.573 12.104.259 1.771-1.123 3.692-4.216 2.687-6.558-1.036-2.422-4.388-2.185-6.369-2.009-2.89.26-5.87.668-8.676 1.69-3.78 1.376-2.645 5.289.255 6.611l-.001.007zm30.213-3.465c1.004 2.394 3.731 3.235 6.027 2.983 2.953-.33 6.832-1.906 7.54-4.594.477-1.806.064-3.186-1.22-3.66-1.738-.644-4.244-.241-6.113-.299-1.296-.039-2.74-.302-4.041.059-2.307.635-3.078 3.395-2.2 5.51l.007.001z" fill="#633524"/><path d="M111.814 207.56c.318 5.168 4.625 9.735 8.869 12.534 4.351 2.869 9.496 4.309 14.677 4.197.068.219.196.432.409.629 9.891 9 28.867 11.081 38.067.022 1.386-1.667 1.875-3.775 4.063-4.452 2.273-.701 5.144-.207 7.562-.891 11.729-3.324 18.774-14.739 16.827-26.762-.104-.64 1.579-3.275 1.709-4.262.699-5.374-3.009-9.844-7.979-11.263-2.539-.722-5.262-.762-7.87-.508-.788.072-7.045 1.76-7.261 1.54a8.595 8.595 0 00-.577-.546c-5.301-4.498-12.294-1.32-17.021 2.024-1.346.954-3.311 3.046-4.949 3.434-2.414.566-3.745-2.734-5.292-3.962-2.216-1.753-5.213-2.526-8.024-2.432-3.882.129-7.53 1.697-10.888 3.527-.405.216-.827.445-1.288.459-.275.007-.551-.067-.826-.104-5.926-.772-8.562 9.22-12.201 12.057-2.353 1.837-4.576 3.324-5.906 6.06-1.274 2.619-2.278 5.764-2.1 8.692l-.001.007z" fill="#8C5441"/><path d="M127.747 172.141c1.693-2.418 2.658-5.139 2.787-8.092.039-.928-1.4-1.175-1.441-.233-.118 2.695-.927 5.182-2.475 7.394-.538.765.582 1.703 1.129.931zm41.386-18.914c1.47.794 3.252 1.712 3.844 3.402.69 1.958-.49 4.036-1.39 5.715-.445.833.886 1.433 1.33.608 1.092-2.048 2.281-4.503 1.425-6.851-.752-2.072-2.763-3.22-4.594-4.206-.83-.445-1.43.889-.607 1.333l-.008-.001zm-5.405 2.871c1.357.575 2.78.79 4.246.642.932-.094.783-1.549-.157-1.457a6.988 6.988 0 01-3.481-.518c-.865-.37-1.472.963-.608 1.333z" fill="#D37C61"/><path d="M147.035 165.886c3.562 1.711 7.63.663 10.2-1.146 1.086-.766.217-2.39-1.076-2.221-2.879.38-5 .92-8.774 1.2-1.295.094-1.524 1.607-.35 2.167zm30.74-2.653c2.908 2.88 7.123 2.701 8.546 1.129.946-1.048.089-2.106-1.281-1.779-1.492.352-3.673-.705-6.35-1.345-1.374-.333-1.91 1.011-.915 1.995z" fill="#2B141B"/><path d="M158.859 149.386c1.971-.252 3.924-1.027 5.915-1.313 2.059-.29 4.116-.387 6.192-.37.709.003 1.27-1.271 1.393-1.844.076-.381-.199-.737-.473-1.011-1.764-1.761-4.139-2.671-6.626-2.48-2.607.202-6.524 1.786-7.854 4.203-.774 1.402-.321 3.04 1.453 2.815z" fill="#fff"/><path d="M239.736 89.844c-.793.51.059 1.693.852 1.184 1.179-.751 3.76-1.713 4.215-3.152.244-.777-.143-1.677-.311-2.424l-.931-4.035c-.208-.909-1.66-.758-1.453.158.365 1.586 1.09 3.416 1.16 5.044.069 1.583-2.318 2.443-3.539 3.224l.007.001zm10.239 24.694a21.184 21.184 0 007.519-5.191c.644-.689-.487-1.613-1.129-.931a19.44 19.44 0 01-6.924 4.761c-.871.356-.345 1.723.526 1.367l.008-.006zm-6.697-10.551a18.401 18.401 0 006.067-4.173c.657-.68-.473-1.604-1.129-.931a16.676 16.676 0 01-5.464 3.736c-.865.364-.339 1.732.526 1.368zm16.612 16.892c3.284-1.419 5.84-3.824 7.485-6.998.431-.835-.924-1.38-1.353-.553-1.471 2.832-3.78 4.943-6.706 6.205-.866.372-.301 1.724.565 1.352l.009-.006zM95.602 84.423c-.002.281.126.45.304.538-.988 1.724-1.235 3.709-.053 5.916.437.82 1.808.3 1.365-.528-2.474-4.604 2.523-7.875 6.004-9.648.471.981.872 2.025 1.06 2.737.744 2.805-.328 3.766-1.975 5.583-.776.861-1.243 1.601-1.549 2.716-.25.909 1.192 1.135 1.442.233.762-2.746 4.136-3.669 4.018-6.832-.054-1.447-.828-2.788-1.437-4.059-.642-1.334-1.16-3.072-2.075-4.228-1.113-1.396-2.626-1.373-4.046-.365-2.397 1.696-3.018 5.215-3.05 7.93l-.008.007zm6.288-5.954c.205.24.425.573.645.95-1.824.943-3.894 2.262-5.4 3.887.382-2.681 2.026-8.044 4.747-4.838l.008.001zm8.833 25.519a42.557 42.557 0 007.046-6.891c.592-.735-.529-1.665-1.129-.931a41.382 41.382 0 01-6.776 6.638c-.744.577.107 1.767.852 1.183l.007.001zm10.212 1.622a25.796 25.796 0 007.385-3.908c.75-.568-.186-1.691-.936-1.123a24.743 24.743 0 01-7.064 3.708c-.892.301-.263 1.626.614 1.33l.001-.007z" fill="#D37C61"/><path d="M78.5-69.594a29.42 29.42 0 011.587.301c11.164 2.45 21.426 11.494 31.358 27.656 5.371 8.735 10.178 18.625 14.691 30.24.381.981.783 1.973 1.188 2.988 1.879 4.67 3.821 9.493 4.533 14.332.537 3.63-.272 8.09-.805 10.421a3.136 3.136 0 00.2 2.012c4.238 9.064 4.608 16.799 4.622 17.12a.734.734 0 01-.7.762.735.735 0 01-.759-.702c-.003-.074-.377-7.78-4.483-16.563a4.607 4.607 0 01-.298-2.962c.509-2.231 1.286-6.488.784-9.883-.688-4.665-2.598-9.415-4.445-14-.406-1.014-.814-2.014-1.194-3.003-4.483-11.528-9.249-21.345-14.573-30.006-9.581-15.586-19.822-24.67-30.429-27.001-7.358-1.612-15.42-.194-22.133 3.904-6.999 4.267-10.68 9.426-14.675 16.885a.73.73 0 11-1.286-.69c4.119-7.684 7.922-13.001 15.209-17.444 6.549-3.998 14.339-5.564 21.62-4.387l-.011.02z" fill="#4F3333"/><path d="M123.719 17.28c1.946.314 3.106.642 3.163.66a.733.733 0 01-.413 1.408c-.233-.067-23.711-6.65-37.812 12.04a.735.735 0 01-1.022.146.737.737 0 01-.145-1.025c11.567-15.325 29.112-14.365 36.227-13.215l.002-.015zM48.325-4.592a.754.754 0 01.531.375C54.698 6.73 62.557 17.18 71.59 26.003c.511.499 1.031 1.035 1.572 1.575 1.943 1.982 3.957 4.028 6.122 5.283.29.165 1.885.505 2.93.725 3.147.665 3.847.86 4.105 1.42 3.53 7.675 6.171 10.185 6.197 10.212a.74.74 0 01.04 1.036.72.72 0 01-1.028.042c-.116-.108-2.82-2.643-6.46-10.506-.485-.204-2.08-.544-3.16-.77-1.788-.378-2.903-.618-3.363-.885-2.333-1.356-4.512-3.57-6.43-5.518-.528-.538-1.041-1.066-1.554-1.556C61.426 18.14 53.47 7.562 47.56-3.515a.734.734 0 01.765-1.07l.001-.007zm186.662-35.101a.733.733 0 01.15 1.404c-10.457 4.108-12.578 11.514-13.848 15.936l-.154.538c-7.739 26.645 6.293 50.439 18.669 71.43 1.967 3.343 4.959 3.915 4.988 3.92a.719.719 0 01.572.53c.143.535.262 1.08.381 1.626.583 2.704 1.058 4.39 3.336 4.847a.735.735 0 01.571.864c-.079.395-.47.665-.862.572-3.324-.67-3.934-3.483-4.471-5.972-.086-.385-.164-.768-.26-1.14-1.058-.319-3.675-1.38-5.516-4.495-12.535-21.246-26.734-45.327-18.815-72.58l.152-.531c1.256-4.38 3.593-12.522 14.721-16.892a.75.75 0 01.384-.042l.002-.015z" fill="#4F3333"/><path d="M269.721 48.667c7.079 1.144 12.538 3.472 12.967 3.66.372.164.54.592.377.959a.723.723 0 01-.956.379c-.201-.085-20.136-8.587-33.254-.927a.734.734 0 01-.734-1.268c6.705-3.913 14.883-3.897 21.601-2.81l-.001.007zm-33.97-5.462c.253.04.483.219.574.478.142.401 3.444 9.9 3.225 24.754a.729.729 0 01-.738.719.718.718 0 01-.716-.739c.217-14.565-3.109-24.142-3.145-24.244a.732.732 0 01.808-.967l-.008-.001z" fill="#4F3333"/><path d="M148.477 196.959c3.483 11.166 17.718 13.616 24.749 4.527 8.001 7.292 20.461 4.79 25.06-5.173.397-.856-.932-1.464-1.329-.608-4.328 9.385-16.078 11.378-23.359 4.121-.268-.266-.817-.207-1.03.1-6.231 8.944-19.476 6.914-22.725-3.503-.284-.898-1.642-.369-1.365.528l-.001.008zm1.824 13.471c.324 5.361 3.861 10.063 8.934 11.81.882.306 1.497-1.026.607-1.333-4.624-1.592-7.799-5.746-8.094-10.644-.055-.943-1.509-.777-1.453.158l.006.009zm-10.554 9.417l1.899-4.884c.342-.879-.988-1.487-1.329-.608l-1.899 4.884c-.342.879.987 1.487 1.329.608z" fill="#633524"/></g></g><defs><clipPath id="clip0_6_174"><path fill="#fff" transform="translate(.33)" d="M0 0h325.33v324H0z"/></clipPath><clipPath id="clip1_6_174"><path fill="#fff" transform="rotate(-170.817 139.765 114.365)" d="M0 0h270v461H0z"/></clipPath></defs></svg>