<svg width="417" height="253" fill="none" xmlns="http://www.w3.org/2000/svg"><g clip-path="url(#clip0_67_647)"><path fill="#8DED60" d="M0 0h417v253H0z"/><g clip-path="url(#clip1_67_647)"><path d="M285.538 150.867c-1.317-8.404-5.57-15.743-10.373-22.587-5.18-7.388-10.067-14.97-15.044-22.497-4.013-6.064-9.343-11.287-16.183-13.93-9.588-3.7-21.656-3.675-31.436-.682-3.647 1.112-7.133 2.871-10.103 5.241-13.098 10.441-17.662 29.329-16.44 45.465.245 3.259.659 6.566 1.443 9.734 2.348 9.516 5.995 15.06 15.656 18.959 3.365 1.959 9.57 2.171 13.505 2.57 5.791.586 11.678.883 17.446-.073 2.551-.423 5.048-1.118 7.414-2.152 3.444-1.499 6.426-4.728 10.463-3.712 3.252.816 6.145 3.017 9.247 4.262 2.875 1.155 5.947 1.941 9.067 1.929 5.097-.012 9.876-2.152 12.751-6.366 3.24-4.74 3.438-10.701 2.581-16.173l.006.012z" fill="#8C5441"/><path d="M340.158 284.244c-9.313-26.009-16.931-33.131-23.196-41.94-.407-.574-1.06-.629-1.563-.405-4.312-2.146-8.522-3.561-13.313-1.904-4.265 1.475-8.133 4.419-11.086 7.811-3.815 4.377-8.283 13.512-3.126 17.853-.03.399.113.822.509 1.119 8.45 6.336 14.912 13.681 23.213 25.839 4.246 6.222 12.463 7.165 19.5 1.04 3.127-2.72 1.36-.495 1.827-4.631.497-4.407 8.684-.725 7.235-4.782zm-186.486-175.71c-2.377-7.902-11.894-12.992-19.296-15.12-6.343-1.826-13.027 2.563-17.219 6.843-19.266 19.667-35.12 54.782-40.6 69.177-5.048 13.258-9.989 27.079-10.234 41.438-.126 7.376 1.024 15.386 5.779 21.281 4.839 6.004 12.355 5.84 19.32 5.314 11.392-.852 23.669-2.188 34.024-7.375.832-.418-.88-3.441-1.324-3.967 3.031-4.195-.886-6.045-1.455-10.961-.904-7.811 1.779-10.507-1.869-17.496.228-.774-1.233-3.247-2.251-3.12-5.384.647-13.056 3.368-18.321 5.091-.868.284-1.736-.454-1.629-1.367.797-6.916 2.432-14.933 4.528-21.432 4.755-14.782 12.619-28.234 21.315-40.991 3.258 1.221 7.594 1.5 11.103 1.475 6.493-.042 11.679-5.127 14.757-10.459 1.605-2.787 2.809-5.858 3.402-9.032.132-.696.246-1.403.3-2.104.053-.744-.318-1.566-.288-2.159.042-.755.563-1.445.575-2.285.012-.925-.341-1.874-.605-2.745l-.012-.006z" fill="#F4B890"/><path d="M327.317 260.895c.414-1.034.767-2.122.725-3.229-.048-1.257-.605-2.43-1.144-3.561-7.947-16.626-19.817-35.416-32.167-49.243-12.96-14.51-45.869-20.38-46.055-19.842a137.507 137.507 0 00-4.097 14.322c-.802 3.525-1.377 7.558.749 10.472 1.078 1.481 2.719 2.442 3.959 3.79 3.767 4.087 3.072 10.43 3.336 16.004.575 12.285 7.007 23.718 15.577 32.46 8.57 8.736 19.189 15.108 29.873 21.027 1.102.611 2.276 1.234 3.528 1.149 1.096-.073 2.078-.677 3.006-1.264 6.702-4.226 13.703-8.796 18.524-14.933 1.701-2.17 3.138-4.534 4.186-7.146v-.006z" fill="#DEFC42"/><path d="M241.142 183.267c-4.372-4.903-5.247-12.237-5.247-18.355 0-6.125.216-12.249.533-18.368.084-1.632-1.772-2.116-2.946-1.469-2.57-.562-5.121-.211-7.738-.157-3.162.073-6.313-.048-9.469-.302-.868-.073-1.425.338-1.683.895-.814.32-1.473 1.076-1.293 2.11 1.048 5.93 1.455 11.976 1.03 17.98-.168 2.358-.497 4.939-1.881 6.983-1.796 2.66-5.072 3.307-8.121 3.942-.736.151-1.156.586-1.311 1.1-.989.901-.539 3.053 1.329 3.247 11.307 1.142 21.956 5.846 33.491 5.211.527-.03.934-.218 1.233-.496 1.432.103 3.306-.931 2.067-2.321h.006z" fill="#F4B890"/><path d="M241.142 183.266c-4.372-4.903-3.636-12.285-3.636-18.409 0-6.125.06-12.854.372-18.972.083-1.632-3.228-1.463-4.396-.816-2.57-.562-5.121-.212-7.738-.157-3.162.072-6.313-.049-9.469-.303-.868-.072-1.425.339-1.683.895-.814.321-2.653.708-2.473 1.735.731 4.13 1.036 10.067 1.048 14.359.012 3.869 1.545 7.624-.719 10.979-1.796 2.661-5.072 3.307-8.121 3.942-.736.151-1.156.587-1.311 1.101-.989.9-.539 3.053 1.329 3.246 11.307 1.143 21.956 5.847 33.491 5.212.527-.03.934-.218 1.233-.496 1.432.103 3.306-.931 2.067-2.322l.006.006z" fill="#D47D5D"/><path d="M238.985 99.46c-5.096-4.728-12.876-6.21-20.524-3.646-7.857 2.636-12.253 8.307-14.11 15.58-.054.206-.102.411-.15.611-1.772 7.418-1.221 15.096-.078 22.557 1.06 6.91 2.995 15.368 8.9 20.205 4.941 4.045 12.906 4.776 18.949 2.315 4.947-2.013 7.349-4.177 8.87-9.165 1.952-6.403 3.917-15.828 4.27-22.466.324-6.095.557-12.908-1.473-18.803-.994-2.89-2.605-5.302-4.648-7.2l-.006.012z" fill="#F4B890"/><path d="M237.285 128.407c0 1.487-.444 2.63-1.623 2.69-1.492.073-1.623-1.203-1.623-2.69 0-1.488.479-2.636 1.623-2.691 1.563-.078 1.623 1.203 1.623 2.691z" fill="#2B141B"/><path d="M240.644 117.609c-2.228-1.887-8.893-1.01-9.337 2.364-.347 2.624 3.552 2.986 5.247 2.654 1.515-.302 4.168-1.101 4.689-2.793.3-.962.024-1.699-.599-2.225zm-23.746-.055c-2.144-1.789-6.091-2.442-7.103.024-.563 1.379.138 2.437 1.263 3.199.797.78 1.971 1.287 2.965 1.584 1.425.429 3.186.369 3.983-1.131.718-1.348.084-2.684-1.102-3.676h-.006z" fill="#8C5441"/><path d="M211.424 127.826c-.054 1.536.365 2.739 1.593 2.842 1.551.133 1.731-1.185 1.785-2.727.054-1.535-.401-2.739-1.593-2.841-1.623-.139-1.731 1.185-1.785 2.726z" fill="#2B141B"/><path d="M272.872 213.393c-.683-1.983.323-5.889.323-8.053 0-2.842-.144-5.683-.245-8.525-.12-3.458-8.044-5.06-10.715-6.185-4.497-1.898-8.989-3.79-13.481-5.701-3.929-1.668-5.887-3.216-7.576-7.527-1.563-3.984-1.617-8.506-1.869-12.744-.197-3.326-1.036-3.017-2.198-2.63-6.582 2.176-17.41 1.505-23.608-1.645-2.282-1.155-1.809 4.486-1.965 5.683-.431 3.277-1.401 6.747-4.761 8.035-5.21 1.995-10.9-.024-16.2-.363-6.917-.441-14.074.907-20.938 1.736-7.57.906-15.128 2.007-22.596 3.573-7.271 1.529-14.47 3.506-21.417 6.16-3.138 1.197-18.069 5.859-16.398 10.931 1.635 4.982 6.283 23.494 5.486 39.999-.03.647.306 1.185 1.12 1.246 21.56 1.511 41.516-4.25 42.522-3.749 1.821.913 1.503 2.908 1.599 4.638.258 4.607.677 9.207 1.24 13.784 1.102 8.9 2.761 17.726 4.827 26.451.707 2.986 10.325 38.554 12.87 37.278-.814.411 1.509 7.177 2.653 7.557.372.121.749.23 1.12.345.246.484.479.973.725 1.457.593 1.161 2.138.484 2.204-.58 16.512 4.637 33.814 4.83 50.841 3.512 4.629-.356 9.253-.822 13.87-1.336 4.079-.453 8.9-.344 12.793-1.747 2.952-1.064 4.318-3.652 5.252-6.511 1.527-4.662 2.677-9.498 3.767-14.275a226.528 226.528 0 003.264-17.563c3.516-8.869 5.983-18.077 6.384-27.744.647-15.489-3.785-30.713-8.887-45.501l-.006-.006z" fill="#DEFC42"/><path d="M247.077 131.937a1.393 1.393 0 01.066-.985c5.096-10.749 6.713-24.111-1.767-33.639-3.983-4.48-9.427-6.221-15.218-6.777-4.169-.4-8.672-.52-12.499 1.13-.216.09-.449.121-.683.103-.479-.03-.958.206-1.114.81 0 .012 0 .024-.006.036-.479.303-.946.647-1.395 1.028a1.414 1.414 0 01-.887.333c-3.246.066-6.504 1.844-8.881 4.038-8.684 8.017-7.87 21.028-2.701 30.719.521.974 2.203.568 2.12-.58-.521-7.261 2.653-18.549 9.941-21.965.755-.356 1.647.073 1.863.883 1.078 4.033 3.066 7.823 5.947 11.028a27.101 27.101 0 009.798 6.916c4.12 1.699 10.577 2.11 12.769 6.409-.066.356.054.689.263.937.126.151.222.326.27.514.06.235.107.483.143.737.204 1.457 2.396.841 2.198-.61a8.681 8.681 0 00-.227-1.071v.006z" fill="#8C5441"/><path d="M245.161 127.119a4.237 4.237 0 00-.989.532c-.275.199-2.168 1.802-2.072 2.152 1.24 4.456 1.204 6.911.515 11.463 1.539-.187 3.282-2.654 3.965-3.833 1.168-2.031 2.27-4.456 2.426-6.826.095-1.463-.444-3.023-1.929-3.518a2.792 2.792 0 00-1.91.036l-.006-.006zm-41.103-.581c-3.228-1.692-5.211-.066-5.48 1.718-.551 3.694 3.33 11.934 6.989 13.494 1.701.725.407-14.202-1.509-15.212z" fill="#F4B890"/><path d="M245.843 129.205a26.65 26.65 0 00-1.647 6.118c-.108.725.988 1.034 1.096.308.311-2.11.856-4.141 1.647-6.118.275-.683-.827-.986-1.096-.308zm-41.57 5.81a93.438 93.438 0 00-2.641-6.312c-.311-.671-1.288-.085-.982.58a91.626 91.626 0 012.527 6.04c.258.683 1.36.387 1.096-.308zm-64.615-7.134a.896.896 0 01-.845-.605.902.902 0 01.551-1.155c3.223-1.148 5.636-4.008 6.457-7.66.071-.32.137-.653.203-.985.425-2.146.911-4.577 3.192-5.822.995-.544 2.546-.925 3.672-.23.425.26 1.126.913 1.09 2.309a.906.906 0 01-.923.883.902.902 0 01-.874-.931c.012-.375-.072-.617-.234-.719-.359-.224-1.179-.097-1.874.278-1.539.84-1.905 2.654-2.282 4.582-.072.351-.138.696-.216 1.028-.958 4.263-3.803 7.618-7.612 8.972a.85.85 0 01-.299.055h-.006z" fill="#D47D5D"/><path d="M149.762 113.25c-.054 0-.108 0-.162-.012a.909.909 0 01-.725-1.052c.581-3.241-7.779-8.712-13.188-11.403a.912.912 0 01-.407-1.215.896.896 0 011.204-.41c1.557.773 15.17 7.72 14.164 13.348a.893.893 0 01-.88.744h-.006zm-5.834 8.089c-.767 0-1.431-.248-1.857-.526l-.61-.393.251-.683c2.527-6.862-11.816-13.24-11.96-13.307a.908.908 0 01-.467-1.191.893.893 0 011.18-.471c.635.278 15.008 6.68 13.182 14.739.574.085 1.443-.072 2.293-1.354a.892.892 0 011.246-.248c.413.278.521.84.246 1.258-1.108 1.668-2.414 2.176-3.51 2.176h.006z" fill="#D47D5D"/><path d="M139.442 123.661c-.88 0-1.533-.296-1.635-.345l-.539-.26.024-.598c.3-7.026-11.996-10.26-12.121-10.296a.902.902 0 01-.647-1.101.901.901 0 011.09-.659c.551.139 13.086 3.44 13.475 11.409.305.048.707.054 1.108-.121.635-.272 1.15-.931 1.515-1.953a.895.895 0 011.15-.544.908.908 0 01.539 1.161c-.551 1.535-1.407 2.545-2.539 3.017a3.745 3.745 0 01-1.42.278v.012zm-6.911.514a.904.904 0 01-.899-.877c0-.024-.072-.647-2.072-2.382-.695-.605-2.24-1.366-4.342-2.146-1.491-.557-2.761-.925-2.773-.931a.911.911 0 01-.611-1.125.899.899 0 011.114-.617c.054.019 1.336.393 2.887.968 2.372.876 4.019 1.711 4.893 2.472 1.833 1.59 2.665 2.733 2.695 3.7a.903.903 0 01-.868.938h-.03.006z" fill="#D47D5D"/><path d="M133.657 127.476c-1.366 0-2.713-.369-3.749-.653-1.45-.399-2.492-1.191-3.097-2.346-1.024-1.965-.455-4.359-.023-5.611.161-.465.676-.743 1.143-.586a.884.884 0 01.581 1.112c0 .006-.024.067-.024.073-.269.78-.82 2.757-.083 4.166.365.701 1.012 1.172 1.976 1.438 1.563.43 3.701 1.016 5.174.133.845-.507 1.426-1.463 1.767-2.914a.893.893 0 011.084-.671.907.907 0 01.665 1.095c-.455 1.928-1.324 3.295-2.593 4.056-.881.526-1.851.714-2.815.714l-.006-.006z" fill="#D47D5D"/><path d="M124.542 132.131a.908.908 0 01-.198-1.79c1.479-.338 2.443-.979 2.857-1.904.802-1.802-.509-4.244-.527-4.269a.91.91 0 01.353-1.233.899.899 0 011.222.351c.072.133 1.761 3.246.599 5.882-.659 1.482-2.037 2.473-4.103 2.945a1.116 1.116 0 01-.197.024l-.006-.006zm-26.4 81.752a.903.903 0 01-.886-.774c-.276-1.886-.282-4.148-.24-5.707.09-3.313.15-3.356.545-3.628a.896.896 0 011.407.786c0 .03 0 .054-.005.085-.03.302-.414 4.897.072 8.204a.906.906 0 01-.893 1.04v-.006zm126.033-75.821c-.779-.913-1.635-1.953-2.048-3.102-.617-1.711.353-3.137 1.359-4.443.443-.575-.353-1.397-.802-.81-1.043 1.348-2.168 2.865-1.905 4.685.246 1.699 1.521 3.235 2.593 4.486.479.562 1.282-.254.803-.81v-.006zm3.868-1.76a4.566 4.566 0 00-2.575-.701c-.73.018-.736 1.173 0 1.149a3.498 3.498 0 012.001.544c.622.393 1.197-.605.574-.992zm3.145 6.742c-.006-.037-.018-.079-.024-.115-.258-1.016-1.599-.278-2.234-.145-1.108.23-2.234.332-3.36.338-2.156.018-4.3-.308-6.42-.677-.305-.054-.844.23-.982.502-.108.218-.042.496.102.689 1.539 2.116 4.198 2.878 6.701 2.721 1.492-.091 6.63-1.046 6.223-3.313h-.006z" fill="#D47D5D"/><path d="M276.153 227.782c-.281-.713-1.437-.405-1.156.321 4.834 12.321 6.361 25.634 4.372 38.741-.113.762 1.037 1.088 1.156.321 2.025-13.325.551-26.838-4.372-39.383zM233.2 181.229c-6.647 3.229-14.613 1.917-19.925-3.234-.557-.538-1.401.314-.844.852a18.813 18.813 0 0021.38 3.428c.695-.338.09-1.378-.605-1.046h-.006zm-62.735 44.685c-2.192.822-4.378 1.644-6.57 2.467-.718.272-.407 1.438.318 1.166l6.57-2.466c.718-.272.407-1.439-.318-1.167z" fill="#3D2323"/><path d="M250.682 133.54c-.647-.345-1.222.647-.575.991 8.858 4.722 24.244 13.519 21.561 25.732-.156.719.94 1.027 1.096.308 2.832-12.908-12.709-22.031-22.082-27.025v-.006zm-41.641 26.475c-5.348-3.483-5.259-10.212-4.995-15.925.036-.738-1.102-.738-1.138 0-.282 6.179-.162 13.192 5.558 16.916.617.399 1.192-.592.575-.991zm19.602-66.813c-5.953.248-13.865 2.805-13.23 10.29.06.731 1.204.737 1.138 0-.575-6.802 6.737-8.924 12.092-9.142.73-.03.736-1.178 0-1.148zm35.197 39.104c-9.367-8.675-10.121-24.34-22.111-30.519-.653-.339-1.228.653-.575.991 11.804 6.089 12.606 21.753 21.883 30.345.539.501 1.348-.315.803-.811v-.006zm-2.588-10.393a90.625 90.625 0 01-2.497-7.647c-.198-.714-1.294-.412-1.096.308a89.944 89.944 0 002.497 7.648c.258.683 1.36.387 1.096-.309zm-12.576 27.098c-.431-.592-1.42-.018-.982.58 2.629 3.622 3.725 7.896 3.054 12.352-.108.726.988 1.034 1.096.308.713-4.746-.353-9.359-3.168-13.24z" fill="#633524"/></g></g><defs><clipPath id="clip0_67_647"><path fill="#fff" d="M0 0h417v253H0z"/></clipPath><clipPath id="clip1_67_647"><path fill="#fff" transform="translate(66.316 89)" d="M0 0h277.926v382.78H0z"/></clipPath></defs></svg>