<svg width="414" height="253" fill="none" xmlns="http://www.w3.org/2000/svg"><g clip-path="url(#clip0_67_602)"><path fill="#FCF542" d="M0 0h414v253H0z"/><g clip-path="url(#clip1_67_602)"><path d="M244.335-46.86l-2.807 42.894c-.892 13.663-1.85 27.322-2.676 40.988-.687 11.345-1.132 22.789.003 34.117 1.237 12.346-4.381 7.063 2.152 17.662-1.297 1.578-7.385 19.376-4.618 19.971 22.492 4.852 45.381-2.63 53.855-14.6 6.997-9.88 7.517-18.775 9.172-30.475 5.058-35.82 2.715-73.119-5.829-108.209-1.864-7.642-4.359-14.311-11.354-18.578-6.564-4.005-14.612-5.974-22.347-6.853a3 3 0 00-1.963-1.719c-5.031-1.458-9.471 2.17-11.197 6.717-2.13 5.625-1.995 12.157-2.383 18.079l-.008.006z" fill="#8DED60"/><path d="M102.101-161.547c-6.348 24.904-13.164 49.406-16.715 75.03-3.868 27.915-5.014 56.826-2.158 85.102 1.864 18.438-3.91 36.584 7.163 51.958 8.59 11.925 29.949 25.715 42.788 32.313 18.44 9.47 37.26 16.775 57.389 22.61 21.267 6.166 44.583 8.445 69.541 4.13 10.707-1.851 21.687-6.126 27.651-15.662 6.193-9.892 5.961-18.894 5.817-30.262-.196-15.032-1.754-29.966-5.554-44.528-3.815-14.609-9.35-28.688-14.918-42.697a736.248 736.248 0 00-3.483-8.653 2043.776 2043.776 0 0016.231-83.065c.497-2.848-15.787-9.455-17.669-10.353-9.993-4.759-19.962-9.574-30.196-13.801-40.084-16.549-83.227-25.622-126.154-30.856-7.304-.891-8.189 2.659-9.742 8.747l.009-.013z" fill="#8DED60"/><path d="M174.187 91.45c4.804 13.753 4.199 21.886 5.116 28.663.33 2.442 2.937 3.011 4.556 2.057.634-.076 1.268-.381 1.794-1.03 3.625-4.441 9.143-7.42 13.606-10.955 4.631-3.671 9.058-7.582 13.349-11.656 1.581-1.502.722-3.369-.804-4.179-1.121-5.831-2.235-11.662-3.355-17.5a2.98 2.98 0 00-.392-1.005c.149-1.103-.313-2.23-1.668-2.769-10.736-4.234-19.996 3.908-26.583 11.571-3.946 4.597-7.534 1.31-5.619 6.803z" fill="#D37C61"/><path d="M167.854 86.934c-.18 8.157 8.773 17.746 9.281 16.115 2.402-7.768 10.719-23.849 19.443-25.471 7.595-1.405 12.522 7.785 13.642 13.802.282 1.507 1.532 2.19 2.97 1.808 1.886-.504 3.461-1.324 4.971-2.563.179-.15.316-.313.441-.485.9-.077 1.798-.6 2.113-1.683 1.929-6.577 1.51-10.574 1.197-17.424-.513-11.058-5.181-24.96-7.508-18.617-1.166 3.185-2.869 8.916-4.479 12.927-.523 1.31-1.938 2.06-3.3 1.698a21.3 21.3 0 00-4.099-.677c-1.339-.09-2.403-1.152-2.556-2.49a56.429 56.429 0 00-3.399-13.748c-.265-.695-.937-1.434-1.693-1.378-18.202 1.454-26.898 33.15-27.01 38.188l-.014-.002z" fill="#F5E8DC"/><path d="M171.55 150.226c-.003.066.016.129.02.196 1.623 14.944 7.964 31.036 25.525 33.638 10.626 1.569 21.621-4.35 28.953-11.729 15.811-15.908 11.367-45.107 5.128-64.35-3.177-9.812-8.273-21.21-18.874-22.433-7.675-.885-16.393-1.953-23.23 5.105-14.087 14.533-17.066 38.862-17.522 59.573z" fill="#F4B890"/><path d="M161.131 159.086c-.354 3.198-.32 7.104 3.687 7.714 3.913.596 7.016-3.181 9.405-5.702 3.934-4.154 7.281-8.796 10.124-13.757.556-.97-.122-1.851-.969-2.062-.481-2.925-.729-5.872-.671-8.843.06-3.068.812-6.031.972-9.075.156-2.889-.855-5.24-3.953-5.563-3.158-.325-8.622-.155-10.588 2.812-1.331 2.009-1.578 4.817-2.129 7.13-.788 3.321-1.584 6.64-2.372 9.961-1.366 5.748-2.857 11.498-3.513 17.384l.007.001z" fill="#A8654E"/><path d="M166.385 135.784c7.18 4.95 10.703-3.89 11.783-7.416.639-2.076 4.626-18.279-3.727-15.469-.024.011-.054.013-.078.024-3.491 1.097-5.162 5.12-6.42 7.549a34.522 34.522 0 00-3.072 8.387c-.498 2.21-1.234 5.028 1.521 6.926l-.007-.001zM281.028-19.581c5.441 14.753 9.816 29.875 13.197 45.244.172.77-.059 1.555-.569 2.148a29.025 29.025 0 00-5.109 8.502c-.279.718-.865 1.276-1.615 1.474-2.164.577-4.251 1.315-6.007 2.892-3.194 2.872-3.606 7.344-3.037 11.373.499 3.551 1.353 8.197 4.779 10.02.169.093.351.16.531.233-.185 4.627 1.127 9.088 6.312 10.601.24.069.482.13.725.184a2.49 2.49 0 011.864 1.688c.423 1.322.995 2.585 1.77 3.741 1.901 2.836 8.599 3.912 11.515 3.53 1.746-.23 2.597 1.555 3.905 2.337 5.352 3.179 11.312-2.806 13.478-7.283 2.756-5.701 3.388-12.718 4.229-18.93 1.256-9.28 1.93-18.714 1.141-28.059-.806-9.11-2.371-18.142-4.499-27.035-3.133-13.105-7.459-25.92-12.474-38.41-.542-1.363-1.688-1.778-2.778-1.576a2.455 2.455 0 01-1.11-.046c-7.106-1.98-14.567-1.991-21.647.305-2.928.95-6.907 2.235-7.767 5.677-.901 3.607 1.943 8.115 3.158 11.396l.008-.006zm-160.8-12.595c7.007 10.966 11.451 23.466 15.577 35.871.971 2.916 2.769 6.395 3.109 9.46.417 3.783-.866 3.071-3.164 6.214-3.541 4.834-3.359 11.032-3.011 16.746.239 3.88-.126 8.603 1.758 12.096 1.839 3.405 7.049 2.927 7.687 6.441 1.165 6.38 5.414 10.3 12.491 9.939.12-.01 8.79 2.637 8.911 2.715 2.459 1.532 7.281 2.497 10.374 1.618 12.358-3.512 13.239-18.474 12.526-29.118-1.039-15.399-4.451-30.855-8.995-45.574-2.091-6.782-4.767-13.428-7.711-19.88a194.437 194.437 0 00-4.892-9.956c-1.381-2.619-4.889-6.634-5.331-9.486a2.113 2.113 0 00-.325-.823c-4.251-6.508-12.337-8.883-19.573-6.99-8.24 2.152-14.23 9.096-18.299 16.558-.221.409-.291.798-.244 1.147-.991.5-1.674 1.798-.895 3.021l.007.001z" fill="#F4B890"/><path d="M79.68 26.841c4.578 13.05 9.412 26.525 21.44 34.431 1.679 1.102 18.373-47.675 19.189-70.159 2.577 2.137 5.635 3.58 9.399 3.811a211.439 211.439 0 005.278 9.536c.297.5.681.778 1.09.903.665.642 1.652.853 2.559.043C149.126-3.939 163.318-7.68 177.022-4.65c1.9.419 2.817-1.502 2.31-2.941.073-.27.092-.57.029-.915a40.373 40.373 0 00-5.292-14.388c2.388-7.637 1.091-15.995-1.7-23.528-3.716-10.003-8.741-19.914-13.621-29.4-8.143-15.835-24.807-35.42-44.71-33.002-9.114 1.107-16.036 7.091-21.912 13.742C75.8-76.625 70.572-56.412 71.404-32.275c.665 19.224 1.851 40.8 8.277 59.116zm186.958-56.052c2.872 8.22 6.229 16.282 10.158 24.05a168.492 168.492 0 006.335 11.42c1.023 1.678 2.003 3.81 3.387 5.22.636.643 4.17 2.164 4.266 2.713.232 1.402.418 2.811.543 4.233.076.813.493 1.348 1.046 1.63.472.877 1.462 1.526 2.678 1.189 11.052-3.033 23.011-1.24 32.679 4.934 5.424 3.465 3.205-10.033 2.927-11.747-.054-.35 3.924-4.92 4.344-5.823 1.095-2.336 1.748-5.004 2.18-7.537 1.369-8.01-.91-16.104-3.479-23.638-4.063-13.944-10.057-27.289-17.895-39.567-5.607-8.782-11.408-16.23-22.067-18.464-8.092-1.694-25.709 3.74-27.976 18.679-1.492 9.821-2.391 23.349.875 32.7l-.001.008z" fill="#8DED60"/><path d="M190.515 139.7c3.555 1.62 8.438 2.573 12.104.258 1.772-1.122 3.692-4.215 2.687-6.558-1.036-2.421-4.388-2.185-6.369-2.008-2.89.26-5.87.668-8.676 1.69-3.78 1.376-2.645 5.289.256 6.611l-.002.007zm30.214-3.465c1.003 2.394 3.73 3.235 6.026 2.983 2.953-.331 6.832-1.906 7.541-4.594.477-1.807.063-3.186-1.221-3.66-1.738-.645-4.244-.241-6.113-.299-1.296-.039-2.74-.302-4.041.059-2.307.635-3.078 3.395-2.2 5.509l.008.002z" fill="#633524"/><path d="M155.867 167.17c.319 5.168 4.625 9.735 8.869 12.534 4.352 2.869 9.496 4.308 14.677 4.197.068.218.197.432.409.629 9.891 9 28.868 11.081 38.067.022 1.386-1.667 1.875-3.775 4.063-4.453 2.273-.7 5.144-.206 7.563-.89 11.728-3.325 18.773-14.739 16.826-26.762-.104-.64 1.58-3.275 1.71-4.262.698-5.374-3.01-9.844-7.98-11.263-2.539-.722-5.262-.762-7.869-.509-.789.073-7.045 1.761-7.261 1.541-.185-.186-.369-.371-.578-.546-5.301-4.498-12.294-1.32-17.021 2.024-1.345.954-3.311 3.046-4.949 3.434-2.414.566-3.745-2.734-5.291-3.963-2.217-1.752-5.214-2.526-8.025-2.431-3.882.129-7.53 1.697-10.888 3.527-.405.216-.827.444-1.287.459-.275.007-.552-.067-.827-.104-5.925-.773-8.561 9.219-12.201 12.057-2.353 1.837-4.575 3.324-5.905 6.06-1.274 2.619-2.278 5.764-2.101 8.692l-.001.007z" fill="#8C5441"/><path d="M171.8 131.751c1.693-2.418 2.658-5.139 2.787-8.092.039-.928-1.4-1.175-1.441-.233-.118 2.695-.927 5.182-2.475 7.393-.538.766.582 1.704 1.129.932zm41.387-18.914c1.469.794 3.251 1.712 3.843 3.402.69 1.958-.489 4.036-1.389 5.715-.446.832.885 1.433 1.329.608 1.093-2.048 2.281-4.503 1.425-6.851-.752-2.072-2.763-3.22-4.594-4.206-.83-.445-1.43.889-.607 1.333l-.007-.001zm-5.405 2.871a8.54 8.54 0 004.245.642c.933-.094.783-1.549-.156-1.457a6.98 6.98 0 01-3.482-.518c-.864-.37-1.472.963-.607 1.333z" fill="#D37C61"/><path d="M191.088 125.496c3.563 1.711 7.63.663 10.201-1.146 1.085-.767.216-2.39-1.076-2.221-2.88.38-5.001.92-8.774 1.199-1.295.095-1.525 1.608-.351 2.168zm30.74-2.653c2.908 2.88 7.123 2.701 8.546 1.129.946-1.048.089-2.106-1.281-1.779-1.492.352-3.673-.705-6.35-1.345-1.374-.334-1.91 1.011-.915 1.995z" fill="#2B141B"/><path d="M202.913 108.996c1.971-.252 3.923-1.027 5.915-1.313 2.058-.29 4.116-.387 6.191-.371.71.004 1.271-1.27 1.393-1.843.076-.381-.199-.737-.473-1.011-1.764-1.761-4.139-2.671-6.625-2.48-2.607.202-6.524 1.785-7.855 4.203-.774 1.402-.321 3.04 1.454 2.815z" fill="#fff"/><path d="M283.789 49.454c-.792.51.059 1.693.852 1.184 1.179-.752 3.761-1.713 4.215-3.153.244-.776-.143-1.676-.311-2.423l-.93-4.035c-.209-.91-1.66-.758-1.453.158.364 1.586 1.089 3.416 1.159 5.044.07 1.583-2.318 2.443-3.539 3.224l.007.001zm10.24 24.694a21.196 21.196 0 007.518-5.191c.644-.69-.486-1.613-1.129-.931a19.435 19.435 0 01-6.924 4.76c-.871.356-.345 1.724.526 1.368l.009-.006zm-6.697-10.552a18.387 18.387 0 006.066-4.172c.658-.68-.473-1.604-1.129-.932a16.68 16.68 0 01-5.463 3.737c-.865.364-.339 1.732.526 1.367zm16.611 16.894c3.284-1.42 5.84-3.825 7.485-7 .431-.834-.923-1.38-1.353-.552-1.471 2.832-3.78 4.943-6.706 6.205-.866.372-.3 1.724.566 1.352l.008-.006zM139.655 44.033c-.002.281.126.45.304.538-.988 1.724-1.235 3.708-.053 5.916.437.82 1.808.3 1.365-.528-2.474-4.604 2.523-7.875 6.004-9.648.471.981.871 2.025 1.06 2.737.744 2.805-.328 3.766-1.975 5.583-.776.861-1.243 1.601-1.549 2.716-.25.909 1.192 1.134 1.442.233.762-2.746 4.136-3.67 4.018-6.832-.054-1.447-.828-2.789-1.437-4.059-.642-1.334-1.16-3.072-2.075-4.228-1.113-1.396-2.626-1.373-4.046-.365-2.397 1.696-3.018 5.215-3.05 7.93l-.008.007zm6.287-5.954c.206.24.426.573.646.95-1.824.943-3.894 2.262-5.399 3.887.381-2.682 2.025-8.044 4.746-4.838l.007.001zm8.834 25.519a42.583 42.583 0 007.046-6.891c.592-.735-.529-1.665-1.129-.932a41.374 41.374 0 01-6.776 6.639c-.744.577.107 1.767.852 1.183l.007.001zm10.212 1.622a25.8 25.8 0 007.385-3.908c.75-.569-.186-1.691-.936-1.123a24.739 24.739 0 01-7.064 3.707c-.892.301-.263 1.626.614 1.33l.001-.007z" fill="#D37C61"/><path d="M92.379-44.982a.754.754 0 01.53.375c5.842 10.947 13.702 21.397 22.734 30.22.512.498 1.032 1.035 1.573 1.575 1.943 1.982 3.957 4.028 6.121 5.282.291.166 1.886.505 2.93.726 3.147.665 3.848.86 4.105 1.42 3.53 7.674 6.172 10.185 6.197 10.211a.74.74 0 01.04 1.037.72.72 0 01-1.028.042c-.116-.108-2.82-2.643-6.46-10.506-.485-.204-2.079-.544-3.16-.77-1.788-.378-2.903-.618-3.363-.885-2.332-1.356-4.511-3.57-6.43-5.518-.527-.538-1.041-1.066-1.553-1.556-9.135-8.922-17.093-19.5-23.002-30.576a.734.734 0 01.764-1.07l.002-.007zm186.662-35.101a.73.73 0 01.562.455.736.736 0 01-.412.949c-10.457 4.108-12.579 11.514-13.849 15.935l-.153.54c-7.739 26.644 6.292 50.438 18.668 71.428 1.967 3.343 4.959 3.916 4.988 3.92a.721.721 0 01.573.53c.143.536.261 1.081.38 1.627.584 2.704 1.058 4.39 3.337 4.847a.734.734 0 01.57.864c-.078.395-.47.665-.862.572-3.323-.67-3.934-3.483-4.471-5.972-.085-.385-.164-.768-.259-1.14-1.058-.32-3.675-1.38-5.516-4.495-12.535-21.246-26.735-45.327-18.816-72.58l.153-.531c1.255-4.38 3.592-12.522 14.72-16.892a.751.751 0 01.384-.042l.003-.015z" fill="#4F3333"/><path d="M313.774 8.276c7.079 1.145 12.539 3.473 12.967 3.661.373.164.54.592.377.958a.722.722 0 01-.956.38c-.201-.085-20.136-8.587-33.253-.927a.733.733 0 01-.735-1.268c6.706-3.914 14.884-3.897 21.602-2.81l-.002.006zm-33.97-5.461c.253.04.483.219.574.478.142.401 3.444 9.9 3.225 24.754a.729.729 0 01-.738.719.718.718 0 01-.716-.74c.217-14.564-3.109-24.14-3.145-24.243a.732.732 0 01.807-.967l-.007-.001z" fill="#4F3333"/><path d="M192.53 156.568c3.483 11.167 17.718 13.616 24.749 4.528 8.001 7.292 20.462 4.79 25.061-5.174.397-.855-.933-1.463-1.33-.607-4.328 9.384-16.078 11.378-23.359 4.121-.267-.266-.817-.207-1.029.1-6.232 8.944-19.476 6.914-22.726-3.503-.284-.899-1.642-.369-1.365.528l-.001.007zm1.824 13.472c.324 5.361 3.861 10.063 8.934 11.81.882.306 1.497-1.026.607-1.333-4.624-1.593-7.799-5.747-8.094-10.644-.055-.943-1.509-.778-1.453.158l.006.009zm-10.554 9.416l1.899-4.883c.342-.879-.987-1.487-1.329-.608-.633 1.625-1.266 3.258-1.899 4.884-.342.879.987 1.487 1.329.607z" fill="#633524"/></g></g><defs><clipPath id="clip0_67_602"><path fill="#fff" d="M0 0h414v253H0z"/></clipPath><clipPath id="clip1_67_602"><path fill="#fff" transform="rotate(-170.817 160.17 92.401)" d="M0 0h270v461H0z"/></clipPath></defs></svg>