<svg width="414" height="253" fill="none" xmlns="http://www.w3.org/2000/svg"><g clip-path="url(#clip0_67_554)"><path fill="#8DED60" d="M0 0h414v253H0z"/><g clip-path="url(#clip1_67_554)"><path d="M238.625 149.124c-1.499-7.3-6.192-12.409-13.467-14.575-13.417-3.994-37.833-3.043-43.603 12.559-3.388 9.171-1.587 20.73.536 29.939.151.661.674.881 1.197.793 3.074 2.835 6.872 4.466 10.922 5.606 5.518 1.556 11.364 2.734 17.102 3.061 8.687.498 17.657-1.82 22.967-8.849.517-.032 1.014-.334 1.153-.977 1.845-8.824 5.045-18.531 3.193-27.557z" fill="#66362D"/><path d="M231.192 248.576c2.148-4.75 3.106-9.971 3.742-15.136-1.808-.712-4.088-.907-5.606-1.348-4.535-1.31-6.879-3.219-7.049-8.415-.239-7.156-.378-14.299.044-21.473.063-1.071-2.721-1.55-3.508-1.247a321.994 321.994 0 01-22.627-4.535c-1.19-.284-1.877.976-1.524 1.833-.158.201-1.877.396-1.871.724.176 8.138 1.31 18.159-1.102 26.064-.158.517-.353 1.027-.63 1.493-1.934 3.282-5.115 4.233-8.435 5.386-3.867 1.341-4.693 4.654-5.808 8.308-.976 3.193-2.614 7.294.29 9.927 3.131 2.834 8.164 4.73 12.025 6.336 8.926 3.717 18.381 3.666 27.716 1.512 4.542-1.046 8.882-2.923 12.372-5.782a30.585 30.585 0 001.959-3.641l.012-.006z" fill="#AD6553"/><path d="M193.165 213.989c2.538 6.966 23.294 2.57 28.894-3.861.037-2.073.378-6.4.504-8.472.063-1.071-2.961-.995-3.742-.699a321.852 321.852 0 01-22.626-4.535c-1.191-.284-1.878.976-1.525 1.833-.157.201-1.877.132-1.871.466.101 4.736.303 10.04.366 15.274v-.006z" fill="#8A4230"/><path d="M226.978 142.964c-9.902-8.749-28.648-7.987-37.29 2.645-6.016 7.408-7.219 17.397-6.847 26.518.214 5.36.982 10.677 2.229 15.892 1.115 4.674 2.426 9.751 5.336 13.687 4.718 6.387 14.103 8.101 21.675 7.294 10.11-1.077 16.598-8.144 18.822-17.554 2.003-8.472 2.916-17.171 2.916-25.844 0-4.334.025-8.794-1.014-13.026-.964-3.943-3.049-7.15-5.827-9.606v-.006z" fill="#AD6553"/><path d="M228.496 139.153c-4.56-3.597-11.155-4.913-16.856-5.48-5.965-.592-12.113.038-17.455 2.897-10.532 5.644-13.209 19.357-12.239 30.096-.29-.775.516 2.721.101 3.445-.416.725-2.331-1.7-2.123-.9.642 2.456 1.304 4.963 2.709 7.092.932 1.405 1.184-.995 2.607-1.959 3.988-2.702.208-14.783 5.109-24.332 2.45-4.775 6.356-6.885 11.238-4.409 2.74 1.392 5.7 2.173 8.812 2.047 2.721-.113 4.989-1.065 7.521-1.928 4.643-1.581 8.945-.592 10.469 4.41 2.224 7.3.548 15.186 2.104 22.638.781 3.741 3.244 4.314 4.762-.126 3.799-11.13 3.288-25.555-6.771-33.485l.012-.006z" fill="#66362D"/><path d="M179.49 166.345c6.525-4.12 9.631 18.455 4.611 18.783-2.136.138-3.685-3.994-4.315-5.656-1.141-3.024-4-10.797-.296-13.133v.006zm57.995 1.556c-5.971-3.314-9.814 17.617-5.341 17.529 1.902-.038 5.152-3.741 5.637-5.329.889-2.891 3.087-10.323-.296-12.2z" fill="#AD6553"/><path d="M210.708 418.335c8.699.976 17.442 1.134 26.147.227 7.396-1.21 14.595-3.2 21.569-5.934.51-.233 1.02-.479 1.53-.718-.126-.995-.22-1.959-.239-2.86-.139-6.834-.284-13.668-.46-20.502-.359-13.958-.825-27.91-1.537-41.849-1.392-27.299-3.71-54.573-7.912-81.57a543.503 543.503 0 00-3.981-22.531c-.649-3.269-1.058-11.886-6.041-11.287a1.688 1.688 0 00-.403.113c-.415-.485-1.152-.655-1.688-.378-1.171.617-1.184-.107-2.11 1.31-1.732 2.658-4.617 12.088-28.793 12.063-10.602-.013-21.562-1.802-30.444-8.126-.812-.579-1.688-1.216-2.677-1.178.34-.012-1.342-3.817-2.526-.863-7.811 19.495-11.269 40.577-14.356 61.332a681.434 681.434 0 00-6.463 64.235 669.97 669.97 0 00-.938 32.785 741.102 741.102 0 000 7.603c19.918 7.59 40.176 14.897 61.309 18.134l.013-.006z" fill="#4F3333"/><path d="M171.634 272.517c18.387 5.632 38.091 5.909 57.058 3.698 7.458-.869 14.866-2.142 22.204-3.748-.353-2.45-.712-4.9-1.09-7.344a543.503 543.503 0 00-3.981-22.531c-.649-3.269-1.058-11.886-6.041-11.288a1.644 1.644 0 00-.403.114c-.415-.485-1.152-.655-1.688-.378-1.172.617-1.184-.107-2.11 1.31-1.732 2.658-4.617 12.087-28.793 12.062-10.602-.012-21.562-1.801-30.444-8.125-.812-.58-1.688-1.216-2.677-1.178.34-.013-1.342-3.817-2.526-.863-4.441 11.073-7.471 22.663-9.827 34.41a89.636 89.636 0 0010.312 3.861h.006z" fill="#FFF6ED"/><path d="M189.14 225.824c-.145-.296-.41-.535-.819-.642a71.588 71.588 0 00-23.754-2.179c-8.277.623-17.436-2.174-25.89-2.098-9.656.082-20.138 2.576-23.552 12.661-.554 1.637-7.446 9.996-4.611 19.665-1.864 9.297.913 54.472-.63 63.825-4.126 25.051-9.102 89.45-2.425 112.333 2.413 8.271 12.227 13.713 19.452 17.731 10.211 5.676 21.839 8.939 33.372 10.501 4.737.642 2.558-20.264 2.879-23.369 5.512-53.37 9.468-106.085 20.214-157.93 3.439-16.604 1.946-32.647 6.904-48.86.283-.919-.397-1.549-1.14-1.638z" fill="#DEFC42"/><path d="M209.234 113.435c-.454-.75-1.197-1.38-2.035-1.827-9.146-4.881-23.401-9.032-20.069-22.782.932-3.85 3.49-8.359 7.622-9.575 2.009-.592 4.705-.308 6.387 1.033 1.72 1.373 2.224 3.546 4.838 3.528 2.425-.02 4.674-.863 5.827-3.08.145-.284.182-.561.145-.82.661-.541-5.519-6.777-6.092-7.325-11.848-11.313-24.062-3.64-32.768 6.96A152.083 152.083 0 00162.5 94.18c-.113.176-11.514 6.752-11.514 6.752-.158.038 7.767 23.646 8.661 23.11 2.003-1.203 3.981-2.494 6.028-3.615 2.709-1.487 5.625-1.14 8.599-1.43 1.662-.164 3.779-.964 5.864-1.94 5.197-2.425 11.137-2.696 16.497-.649 2.237.857 16.731 3.861 12.605-2.973h-.006z" fill="#AD6553"/><path d="M223.797 117.598c5.512-1.6 11.408-.831 16.391 2.016 2.003 1.146 4.044 2.116 5.688 2.419 2.935.535 5.877.434 8.453 2.141 1.947 1.285 3.811 2.74 5.707 4.101.844.611 10.696-22.26 10.545-22.311 0 0-10.816-7.501-10.916-7.684-2.816-5.329-5.915-10.494-9.342-15.457-7.792-11.281-19.332-19.942-32.075-9.644-.617.498-7.294 6.198-6.677 6.797-.057.252-.044.529.076.825.888 2.129 4.409 4.579 6.746 3.263.579-.328 1.046-.82 1.556-1.248 2.74-2.324 6.897-2.828 10.122-1.253 3.484 1.7 4.926 5.738 5.487 9.347 2.186 13.977-12.372 16.938-21.889 21.038-.876.378-1.67.945-2.18 1.657-4.68 6.469 10.016 4.674 12.315 4.006l-.007-.013z" fill="#AD6553"/><path d="M306.139 418.077c1.134-6.583-.069-15.143-.126-21.353-.088-9.467-.529-18.928-1.253-28.364-1.399-18.159-3.862-36.231-6.973-54.176-3.011-17.34 3.111-41.912-.819-59.064-2.375-10.355-5.052-21.939-17.077-26.423-8.019-2.986-50.324-7.805-56.585-4.466-.447.239-.642.611-.661.989-.492.138.22 2.683.308 3.363 7.647 60.343 14.715 118.494 21.795 178.905 2.003 17.108 3.591 34.266 3.893 51.493.013.561.302.932.687 1.134-.24 1.587.756 3.011 2.469 3.263 2.91.422 6.721-2.747 9.071-4.113a175.895 175.895 0 0019.464-13.165c7.653-5.946 22.129-15.652 25.177-25.365.265-.838.473-1.726.63-2.652v-.006zM169.09 227.557c.415-.58.447-1.481-.315-1.997-9.745-6.545-19.131-13.612-28.069-21.221a304.597 304.597 0 01-12.743-11.489c-4.832-4.611-11.685-10.147-12.006-17.41-.152-3.407 1.322-6.733 3.414-9.435 5.694-7.351 35.987-28.433 45.561-35.752 2.369-1.814-3.899-27.778-11.735-34.14-2.054-1.663-25.902 11.684-32.699 15.678-16.969 9.977-34.764 21.926-46.556 37.988-4.466 6.085-12.07 13.694-13.613 21.151-1.631 7.88-2.192 16.585.838 23.936 6.047 14.67 50.235 83.245 53.75 99.521.038.491 15.792-18.783 16.391-18.582.189.063.378.108.567.158.308.202.636.252.944.195 4.322.618 8.082-2.349 11.269-5.14 4.12-3.609 7.837-7.646 11.144-12.011 6.777-8.945 11.603-19.224 14.28-30.115.138-.573-.07-1.027-.429-1.323l.007-.012z" fill="#DEFC42"/><path d="M245.435 228.879c2.67 10.891 7.502 21.171 14.28 30.115 3.307 4.365 7.023 8.409 11.143 12.012 3.187 2.79 6.954 5.757 11.269 5.14.309.056.636.006.945-.196.189-.05.371-.094.567-.157.598-.202-.227 31.255 10.185 23.406 1.008-20.062 61.631-91.496 60.157-121.252-.378-7.603-6.557-20.729-11.024-26.814-11.791-16.068-31.527-29.384-48.496-39.361-6.797-3.994-29.657-15.646-31.71-13.984-7.836 6.362-15.099 30.638-12.724 32.446 9.574 7.319 39.867 28.401 45.561 35.752 2.091 2.702 3.559 6.021 3.414 9.435-.315 7.263-7.168 12.799-12.006 17.41a304.597 304.597 0 01-12.743 11.489c-8.938 7.615-18.324 14.676-28.069 21.221-.762.516-.73 1.417-.315 1.997-.352.289-.567.749-.422 1.322l-.012.019zm-53.272-5.568c2.11-6.191-16.214-4.963-22.11-2.551-3.036 1.241-3.313 3.15-3.641 6.249a222.095 222.095 0 00-1.089 15.444 224.013 224.013 0 00.97 30.285c.926 9.247-2.331 20.112 1.537 28.66.434.957 3.483 12.301 3.534 11.382.466-7.83 10.922-60.475 20.799-89.469z" fill="#DEFC42"/><path d="M222.399 225.434c5.096 27.312 10.583 87.339 10.583 87.339 1.033-.844 1.039-15.224 1.442-16.496 3.843-11.981 6.551-24.307 8.466-36.735a331.36 331.36 0 002.343-18.997c.303-3.175.567-6.356.8-9.537.164-2.255 1.065-5.467-.737-7.3-1.587-1.619-6.866-2.003-8.963-2.4-3.477-.661-15.25-2.878-13.94 4.126h.006z" fill="#DEFC42"/><path d="M169.707 227.103c-.416-.756-1.575-.082-1.159.674 4.945 9.039 7.849 18.878 8.579 29.157.063.857 1.405.863 1.342 0a72.812 72.812 0 00-8.762-29.837v.006zm74.348 1.707a382.349 382.349 0 00-13.512 24.093c-.39.768.763 1.442 1.16.674a375.45 375.45 0 0113.511-24.093c.454-.737-.712-1.411-1.159-.674zm-123.708 23.432c-.132-.851-1.423-.492-1.291.359 1.146 7.306 2.293 14.613 3.439 21.926.132.85 1.424.491 1.292-.359l-3.44-21.926zm-9.934-100.813c.038-.863-1.297-.863-1.341 0a53.087 53.087 0 00.775 11.823c.151.85 1.442.491 1.291-.359a51.452 51.452 0 01-.725-11.464zm194.126 4.894c-.107-.844-1.449-.856-1.341 0 .472 3.685.409 7.332-.234 10.998-.151.844 1.141 1.203 1.292.359.667-3.779.775-7.54.283-11.35v-.007zm-31.394-49.962a119.371 119.371 0 00-8.359 27.923c-.145.844 1.146 1.209 1.291.359a118.025 118.025 0 018.22-27.601c.341-.781-.812-1.468-1.159-.674l.007-.007zm-132.578-.346c-.434-.75-1.593-.069-1.159.674a78.376 78.376 0 019.651 27.45c.132.85 1.423.491 1.291-.359-1.512-9.826-4.813-19.161-9.789-27.771l.006.006z" fill="#4F3333"/><path d="M207.545 78.898c-3.445 1.531-5.48-3.18-7.968-4.591-1.606-.907-3.496-1.216-5.323-1.096-4.409.29-8.081 3.225-11.08 6.223-3.364 3.37-4.208 6.273-3.704 11.017.662 6.248-.938 11.753-5.814 15.961-.686.592.315 1.587.995.995 3.1-2.671 5.298-6.16 6.13-10.198 1.14-5.555-1.878-10.96 2.349-15.703 3.918-4.396 10.727-9.618 16.535-5.354 2.797 2.054 4.649 5.713 8.586 3.962.825-.365.113-1.58-.712-1.216h.006zm40.97 30.638c-3.723-4.239-6.293-9.19-7.471-14.714-.957-4.523-1.259-9.209-3.855-13.184-1.807-2.765-4.548-4.963-7.848-5.587-1.481-.277-3.011-.239-4.46.17-3.024.85-5.631 3.76-9.064 2.23-.819-.365-1.537.85-.712 1.216 3.143 1.405 5.537-.057 8.422-1.386 6.368-2.935 12.081 1.7 14.198 7.634 1.669 4.674 1.663 9.732 3.471 14.393 1.467 3.792 3.647 7.174 6.324 10.223.598.68 1.594-.315.995-.995z" fill="#8A4230"/><path d="M196.441 75.92c-3.654-.505-7.194.73-9.644 3.52-.599.68.396 1.676.995.995 2.091-2.38 5.108-3.59 8.271-3.155.888.12 1.272-1.235.371-1.36h.007z" fill="#8A4230"/><path d="M223.697 171.27c-.082 1.745-.668 3.062-2.073 3.068-1.776 0-1.858-1.505-1.776-3.25.082-1.745.712-3.068 2.072-3.068 1.858 0 1.858 1.506 1.777 3.25z" fill="#2B141B"/><path d="M223.268 171.27c-.082 1.745-.239 3.062-1.644 3.068-1.776 0-1.858-1.505-1.776-3.25.082-1.745.712-3.068 2.072-3.068 1.858 0 1.43 1.506 1.348 3.25zm-28.32-1.215c-.032 1.744.472 3.099 1.87 3.193 1.771.12 1.953-1.379 1.978-3.13.032-1.745-.516-3.106-1.87-3.194-1.852-.119-1.953 1.38-1.978 3.131z" fill="#2B141B"/><path d="M225.561 158.389c-1.858-1.039-4.315-1.486-6.318-.623-1.442.617-2.633 2.406-1.852 4.037.895 1.877 2.923 1.802 4.693 1.562 1.436-.195 5.033.542 5.921-.951.838-1.404-1.386-3.433-2.45-4.031l.006.006zm-31.798-.516c1.827-1.096 4.271-1.606 6.299-.806 1.462.579 2.696 2.33 1.966 3.987-.844 1.902-2.866 1.883-4.649 1.7-1.442-.151-5.014.687-5.946-.781-.876-1.379 1.285-3.47 2.33-4.094v-.006z" fill="#65372F"/><path d="M207.495 180.461c-.85-1.084-1.814-2.262-1.877-3.704-.069-1.443.687-2.822 1.329-4.057.422-.812-.813-1.511-1.235-.699-.768 1.474-1.568 3.068-1.511 4.775.056 1.719 1.064 3.118 2.085 4.415.554.712 1.782-.012 1.215-.737l-.006.007zm4.466-1.273l-1.669-.92c-.8-.44-1.499.794-.699 1.235a230.4 230.4 0 001.669.92c.8.441 1.499-.794.699-1.235z" fill="#8A4230"/><path d="M214.638 187.213c-1.593-.196-3.149.252-4.737.359-1.543.101-3.181.132-4.711-.12-1.046-.17-2.287-.869-3.345-.655-2.016.409.844 4.17 3.496 4.478 2.614.309 5.449.567 7.603-.976.39-.283 3.25-2.904 1.701-3.093l-.007.007z" fill="#fff"/><path d="M235.665 172.07a67.016 67.016 0 01-1.254 5.575c-.239.882 1.134 1.241 1.373.359.498-1.839.92-3.698 1.254-5.575.164-.894-1.216-1.259-1.373-.359zm-51.464 4.643c-.737-2.35-1.474-4.693-2.205-7.042-.27-.87-1.637-.479-1.366.396.737 2.35 1.474 4.693 2.204 7.042.271.87 1.638.479 1.367-.396z" fill="#8A4230"/></g></g><defs><clipPath id="clip0_67_554"><path fill="#fff" d="M0 0h414v253H0z"/></clipPath><clipPath id="clip1_67_554"><path fill="#fff" transform="translate(59 67)" d="M0 0h295v442H0z"/></clipPath></defs></svg>