<svg width="219" height="597" fill="none" xmlns="http://www.w3.org/2000/svg"><path d="M93.2 508.62l-35.961 20.795c-5.849-7.922-14.683-12.131-25.136-12.131C13.812 517.284 0 530.282 0 553.676V597h93.2v-27.108H64.206v-13.864l28.992-16.834v-30.698.124zm-70.802 45.799c0-7.303 4.48-10.769 9.705-10.769 5.227 0 9.582 3.466 9.582 10.769v15.473H22.398v-15.473zm40.564-112.023c-1.866-.247-6.47-.618-9.705-.618-17.794 0-34.343 10.521-34.343 34.163 0 23.643 16.55 37.259 37.827 37.259 24.637 0 38.947-17.825 38.947-42.334 0-10.521-2.613-20.176-5.226-25.004H70.18c2.737 4.828 5.226 10.769 5.226 19.063 0 10.645-4.355 18.196-12.444 21.414v-43.943zm-15.554 44.809c-6.47-1.485-10.452-5.57-10.452-11.264 0-5.694 3.733-9.283 10.452-9.655v20.919zM59.23 386.942c9.456 0 15.678 3.342 15.678 10.645 0 7.304-6.346 10.027-14.31 10.027H21.402v26.86h44.174c18.291 0 30.112-12.006 30.112-29.955 0-10.645-4.106-18.691-11.697-23.766l9.333-4.085v-16.71H21.402v26.86H59.23v.124zm36.458-65.604c0-18.815-7.217-34.04-25.384-34.04-29.366 0-18.665 38.496-27.126 38.496-3.235 0-3.609-5.446-3.609-9.903 0-10.892 2.364-19.186 6.47-25.375H24.016c-2.613 6.065-4.977 15.844-4.977 27.108 0 21.538 9.084 33.421 25.26 33.421 29.614 0 18.913-38.496 27.126-38.496 2.986 0 3.235 5.075 3.235 8.417 0 12.874-4.23 23.767-6.844 29.584h21.527c1.991-4.332 6.47-15.101 6.47-29.336M216.387 508.62l-35.961 20.795c-5.848-7.922-14.683-12.131-25.135-12.131-18.292 0-32.103 12.998-32.103 36.392V597h93.199v-27.108h-28.993v-13.864l28.993-16.834v-30.698.124zm-70.802 45.799c0-7.303 4.48-10.769 9.706-10.769 5.226 0 9.581 3.466 9.581 10.769v15.473h-19.287v-15.473zm40.565-112.023c-1.866-.247-6.47-.618-9.706-.618-17.793 0-34.343 10.521-34.343 34.163 0 23.643 16.55 37.259 37.827 37.259 24.638 0 38.948-17.825 38.948-42.334 0-10.521-2.613-20.176-5.227-25.004h-20.282c2.738 4.828 5.226 10.769 5.226 19.063 0 10.645-4.355 18.196-12.443 21.414v-43.943zm-15.554 44.809c-6.47-1.485-10.452-5.57-10.452-11.264 0-5.694 3.733-9.283 10.452-9.655v20.919zm48.28-81.2c0-18.815-7.217-34.04-25.385-34.04-29.365 0-18.664 38.496-27.126 38.496-3.235 0-3.608-5.57-3.608-9.903 0-10.893 2.24-19.186 6.47-25.375h-22.024c-2.613 6.065-4.977 15.844-4.977 27.108 0 21.538 9.083 33.421 25.259 33.421 29.615 0 18.914-38.496 27.126-38.496 2.987 0 3.236 5.075 3.236 8.417 0 12.874-4.231 23.766-6.844 29.584h21.527c1.99-4.332 6.47-15.101 6.47-29.336m-32.85-107.567c-1.866-.247-6.47-.619-9.706-.619-17.793 0-34.343 10.522-34.343 34.164 0 23.643 16.55 37.259 37.827 37.259 24.638 0 38.948-17.825 38.948-42.334 0-10.521-2.613-20.176-5.227-25.004h-20.282c2.738 4.828 5.226 10.769 5.226 19.063 0 10.645-4.355 18.196-12.443 21.414v-43.943zM170.596 343c-6.47-1.486-10.452-5.571-10.452-11.265 0-5.694 3.733-9.283 10.452-9.655V343zM154.42 235.928c-7.715 5.075-12.319 12.997-12.319 23.395 0 19.434 16.052 34.659 38.325 34.659 22.273 0 38.325-15.225 38.325-34.659 0-10.398-4.604-18.32-12.319-23.395l9.83-4.332v-16.711h-71.921v16.711l9.83 4.332h.249zM196.353 254c0 8.046-6.719 13.493-15.927 13.493-9.208 0-15.927-5.323-15.927-13.493 0-8.169 6.719-13.492 15.927-13.492 9.208 0 15.927 5.323 15.927 13.492zm-54.252-94.817c0 9.903 4.853 18.196 15.554 23.148l-13.065 5.817v16.711h71.921v-26.861h-29.49c-15.927 0-20.78-9.407-20.78-18.319 0-3.961.995-7.056 1.742-9.408h-24.264c-.871 2.476-1.493 5.323-1.493 9.036m54.127-57.682c0 10.521-5.475 19.062-15.927 19.062s-15.927-8.541-15.927-18.938c0-5.818 1.617-11.14 4.728-15.844H146.83c-2.489 4.58-4.729 11.759-4.729 20.671 0 22.405 14.31 40.972 38.325 40.972s38.325-18.567 38.325-40.972c0-9.036-2.24-16.339-4.728-21.785h-22.398c3.111 5.446 4.728 11.14 4.728 16.834zm-54.252-71.05c0 7.674 1.991 14.234 5.973 19.31h-32.975v26.86h101.288v-26.86h-37.081c-9.457 0-15.678-3.59-15.678-11.636s6.221-11.388 15.678-11.388h37.081V0h-42.805c-19.66 0-31.481 12.007-31.481 30.698" fill="#000"/></svg>