<svg width="52" height="52" fill="none" xmlns="http://www.w3.org/2000/svg"><g clip-path="url(#clip0_6_547)"><g clip-path="url(#clip1_6_547)"><g clip-path="url(#clip2_6_547)"><path d="M25.85 51.7c14.277 0 25.85-11.573 25.85-25.85C51.7 11.573 40.127 0 25.85 0 11.573 0 0 11.573 0 25.85 0 40.127 11.573 51.7 25.85 51.7z" fill="#000"/><path d="M31.18 22.32a9.73 9.73 0 005.73 1.83v-4.1a6.135 6.135 0 01-1.21-.13l-.1 3.13a9.41 9.41 0 01-5.6-1.73v8.38A7.6 7.6 0 0118.16 36a7.589 7.589 0 0013-5.31v-8.37h.02zm1.48-4.14a5.79 5.79 0 01-1.48-3.35v-.53H30a5.769 5.769 0 002.62 3.88h.04zM20.81 32.79a3.47 3.47 0 013.82-5.41v-4.2a8.052 8.052 0 00-1.2-.07v3.27a3.571 3.571 0 00-4.61 3.28 3.59 3.59 0 001.99 3.13z" fill="#7FEB6E"/><path d="M35.7 20v-.81a5.67 5.67 0 01-3-.86 5.67 5.67 0 003 1.67zM30 14.41c0-.16-.05-.31-.06-.47v-.53h-4.09v16.4a3.479 3.479 0 01-5 3.09 3.63 3.63 0 002.78 1.5 3.48 3.48 0 003.52-3.4V14.39l2.85.02zm-6.61 8.81v-.93a7.61 7.61 0 00-8.57 6.5 8.756 8.756 0 00-.07 1v.12a6.82 6.82 0 003.48 6.15 7.54 7.54 0 015.16-12.86v.02z" fill="#FCF542"/><path d="M30 21.32a9.72 9.72 0 005.72 1.83v-3.23a5.769 5.769 0 01-3-1.74A5.77 5.77 0 0130 14.3h-3v16.4a3.482 3.482 0 01-4.496 3.3 3.48 3.48 0 01-1.744-1.209 3.47 3.47 0 012.62-6.41v-3.27A7.59 7.59 0 0018.16 36a7.588 7.588 0 0010.76-2.385A7.59 7.59 0 0030 29.7v-8.38z" fill="#fff"/></g></g></g><defs><clipPath id="clip0_6_547"><path fill="#fff" d="M0 0h52v52H0z"/></clipPath><clipPath id="clip1_6_547"><path fill="#fff" d="M0 0h52v52H0z"/></clipPath><clipPath id="clip2_6_547"><path fill="#fff" d="M0 0h52v52H0z"/></clipPath></defs></svg>